<?xml version="1.0" encoding="utf-8"?>
<!-- Generator: Adobe Illustrator 27.5.0, SVG Export Plug-In . SVG Version: 6.00 Build 0)  -->
<svg version="1.1" xmlns="http://www.w3.org/2000/svg" xmlns:xlink="http://www.w3.org/1999/xlink" x="0px" y="0px"
	 viewBox="0 0 500 500" style="enable-background:new 0 0 500 500;" xml:space="preserve">
<g id="Background_Complete">
	<g>
		<g>
			<g>
				<g>
					
						<rect x="177.543" y="63.667" transform="matrix(1 -0.0054 0.0054 1 -0.4934 0.9827)" style="fill:#E0E0E0;" width="11.659" height="58.015"/>
				</g>
			</g>
		</g>
		<g>
			<g>
				<g>
					<g>
						
							<rect x="76.467" y="63.868" transform="matrix(1 -0.0054 0.0054 1 -0.4262 0.4912)" style="fill:#EBEBEB;" width="30.193" height="32.028"/>
					</g>
				</g>
			</g>
			<g>
				<g>
					<g>
						
							<rect x="106.517" y="63.707" transform="matrix(1 -0.0054 0.0054 1 -0.4252 0.6525)" style="fill:#F5F5F5;" width="30.193" height="32.028"/>
					</g>
				</g>
			</g>
			<g>
				<g>
					<g>
						<g>
							<path style="fill:#E0E0E0;" d="M76.429,72.794c20.065,0.166,40.179,0.049,60.242-0.277c0.413-0.006,0.41-0.639-0.004-0.642
								c-20.065-0.111-40.18-0.012-60.241,0.368C76.072,72.251,76.074,72.791,76.429,72.794L76.429,72.794z"/>
						</g>
					</g>
				</g>
			</g>
		</g>
		<g>
			<g>
				<g>
					<g>
						
							<rect x="57.627" y="95.428" transform="matrix(1 -0.0054 0.0054 1 -0.58 0.4573)" style="fill:#EBEBEB;" width="54.855" height="26.101"/>
					</g>
				</g>
			</g>
			<g>
				<g>
					<g>
						
							<rect x="112.222" y="95.135" transform="matrix(1 -0.0054 0.0054 1 -0.5774 0.7495)" style="fill:#F5F5F5;" width="54.856" height="26.101"/>
					</g>
				</g>
			</g>
			<g>
				<g>
					<g>
						<g>
							<path style="fill:#E0E0E0;" d="M57.596,102.834c36.442,0.412,73.011,0.043,109.45-0.541c0.413-0.007,0.41-0.64-0.003-0.642
								c-36.444-0.193-73.015-0.171-109.45,0.632C57.239,102.292,57.241,102.83,57.596,102.834L57.596,102.834z"/>
						</g>
					</g>
				</g>
			</g>
		</g>
		<g>
			<g>
				<g>
					<rect x="37.082" y="121.675" style="fill:#E0E0E0;" width="212.525" height="9.351"/>
				</g>
			</g>
			<g>
				<g>
					<rect x="71.877" y="126.171" style="fill:#E0E0E0;" width="8.627" height="31.906"/>
				</g>
			</g>
			<g>
				<g>
					<rect x="200.667" y="126.171" style="fill:#E0E0E0;" width="8.628" height="31.906"/>
				</g>
			</g>
		</g>
		<g>
			<g>
				<g>
					
						<rect x="188.978" y="42.033" transform="matrix(1 -0.0054 0.0054 1 -0.4357 1.0438)" style="fill:#EBEBEB;" width="11.659" height="79.791"/>
				</g>
			</g>
		</g>
		<g>
			<g>
				<g>
					<g>
						
							<rect x="200.698" y="56.903" transform="matrix(1 -0.0054 0.0054 1 -0.4757 1.1267)" style="fill:#F5F5F5;" width="18.116" height="64.662"/>
					</g>
				</g>
			</g>
			<g>
				<g>
					<g>
						<path style="fill:#E0E0E0;" d="M218.519,69.313c0,0.173-4.056,0.314-9.058,0.314c-5.004,0-9.059-0.141-9.059-0.314
							c0-0.173,4.055-0.314,9.059-0.314C214.464,68.999,218.519,69.14,218.519,69.313z"/>
					</g>
				</g>
			</g>
			<g>
				<g>
					<g>
						<path style="fill:#E0E0E0;" d="M218.519,66.596c0,0.173-4.056,0.314-9.058,0.314c-5.004,0-9.059-0.141-9.059-0.314
							c0-0.173,4.055-0.314,9.059-0.314C214.464,66.283,218.519,66.423,218.519,66.596z"/>
					</g>
				</g>
			</g>
			<g>
				<g>
					<g>
						<path style="fill:#E0E0E0;" d="M218.519,111.788c0,0.173-4.056,0.314-9.058,0.314c-5.004,0-9.059-0.141-9.059-0.314
							c0-0.173,4.055-0.314,9.059-0.314C214.464,111.474,218.519,111.615,218.519,111.788z"/>
					</g>
				</g>
			</g>
			<g>
				<g>
					<g>
						<path style="fill:#E0E0E0;" d="M218.519,109.071c0,0.174-4.056,0.314-9.058,0.314c-5.004,0-9.059-0.14-9.059-0.314
							c0-0.173,4.055-0.314,9.059-0.314C214.464,108.758,218.519,108.898,218.519,109.071z"/>
					</g>
				</g>
			</g>
			<g>
				<g>
					<g>
						<path style="fill:#E0E0E0;" d="M209.753,103.145c-0.173,0-0.314-6.524-0.314-14.569c0-8.048,0.141-14.571,0.314-14.571
							c0.173,0,0.314,6.522,0.314,14.571C210.067,96.621,209.926,103.145,209.753,103.145z"/>
					</g>
				</g>
			</g>
		</g>
		<g>
			<g>
				<g>
					<rect x="218.716" y="72.734" style="fill:#EBEBEB;" width="19.72" height="48.806"/>
				</g>
			</g>
		</g>
		<g>
			<g>
				<circle style="fill:#E0E0E0;" cx="194.423" cy="55.625" r="3.351"/>
			</g>
		</g>
		<g>
			<g>
				<rect x="193.387" y="64.842" style="fill:#E0E0E0;" width="2.072" height="47.466"/>
			</g>
		</g>
	</g>
	<g>
		<g>
			<g>
				<g>
					<polygon style="fill:#E0E0E0;" points="390.463,56.182 463.852,56.182 463.852,162.589 390.963,162.589 					"/>
				</g>
			</g>
			<g>
				<g>
					
						<rect x="384.958" y="56.682" transform="matrix(-1 -1.224647e-16 1.224647e-16 -1 842.637 218.7713)" style="fill:#FFFFFF;" width="72.722" height="105.407"/>
				</g>
				<g>
					<path style="fill:#E0E0E0;" d="M458.179,56.182v106.407h-73.722V56.182H458.179z M457.179,161.589V57.182h-71.722v104.407
						H457.179z"/>
				</g>
			</g>
			<g>
				<g>
					<g>
						<rect x="393.993" y="68.098" style="fill:#FFFFFF;" width="54.651" height="82.575"/>
					</g>
				</g>
				<g>
					<g>
						<g>
							<path style="fill:#E0E0E0;" d="M393.993,68.098c0,0,0.009,0.142,0.014,0.407c0.003,0.28,0.008,0.668,0.014,1.174
								c0.007,1.046,0.016,2.565,0.029,4.535c0.015,3.966,0.037,9.733,0.064,17.017c0.029,14.562,0.07,35.174,0.118,59.442
								l-0.239-0.239c16.698-0.007,35.199-0.014,54.645-0.021h0.007l-0.26,0.26c0.02-31.149,0.038-59.868,0.053-82.574l0.207,0.207
								c-16.631-0.046-30.268-0.083-39.764-0.109c-4.746-0.023-8.454-0.041-10.996-0.053c-1.256-0.01-2.22-0.018-2.889-0.023
								C394.341,68.113,393.993,68.098,393.993,68.098s0.318-0.015,0.959-0.022c0.66-0.005,1.612-0.013,2.851-0.023
								c2.531-0.012,6.223-0.03,10.949-0.053c9.527-0.026,23.207-0.063,39.893-0.109l0.208-0.001l0,0.208
								c0.015,22.706,0.033,51.425,0.053,82.574l0,0.26h-0.261h-0.007c-19.446-0.008-37.947-0.015-54.645-0.021l-0.239,0l0-0.239
								c0.048-24.332,0.089-44.998,0.117-59.599c0.028-7.26,0.049-13.009,0.064-16.962c0.013-1.949,0.022-3.452,0.029-4.487
								c0.006-0.494,0.011-0.874,0.014-1.147C393.983,68.222,393.993,68.098,393.993,68.098z"/>
						</g>
					</g>
				</g>
			</g>
			<g>
				<g>
					<g>
						<path style="fill:#E0E0E0;" d="M384.753,162.089c-0.057-0.044,0.396-0.734,1.174-1.812c0.779-1.078,1.883-2.547,3.152-4.132
							c1.27-1.586,2.47-2.98,3.369-3.962c0.899-0.982,1.492-1.556,1.545-1.51c0.111,0.098-1.979,2.632-4.507,5.798
							C386.961,159.638,384.872,162.182,384.753,162.089z"/>
					</g>
				</g>
			</g>
			<g>
				<g>
					<g>
						<path style="fill:#E0E0E0;" d="M384.958,56.682c0.113-0.089,2.227,2.394,4.721,5.546c2.496,3.153,4.426,5.781,4.314,5.87
							c-0.113,0.089-2.227-2.394-4.722-5.547C386.776,59.4,384.845,56.771,384.958,56.682z"/>
					</g>
				</g>
			</g>
			<g>
				<g>
					<g>
						<path style="fill:#FFFFFF;" d="M457.69,56.765c-3.175,3.917-6.35,7.835-9.525,11.752"/>
					</g>
				</g>
				<g>
					<g>
						<g>
							<path style="fill:#E0E0E0;" d="M448.164,68.518c-0.112-0.091,1.93-2.795,4.56-6.04c2.631-3.246,4.854-5.803,4.965-5.713
								c0.112,0.09-1.93,2.794-4.561,6.04C450.499,66.051,448.276,68.608,448.164,68.518z"/>
						</g>
					</g>
				</g>
			</g>
			<g>
				<g>
					<g>
						<path style="fill:#E0E0E0;" d="M457.679,162.089c-0.113,0.089-2.205-2.368-4.672-5.488c-2.468-3.121-4.377-5.722-4.264-5.812
							c0.113-0.089,2.204,2.368,4.673,5.489C455.883,159.398,457.792,162,457.679,162.089z"/>
					</g>
				</g>
			</g>
		</g>
		<g>
			<path style="fill:#E0E0E0;" d="M424.842,110.591h-9.617l-1.145,2.65c-0.375,0.883-0.563,1.613-0.563,2.188
				c0,0.763,0.308,1.325,0.924,1.687c0.361,0.214,1.251,0.375,2.67,0.482v0.743h-9.055v-0.743c0.977-0.147,1.78-0.552,2.409-1.215
				c0.629-0.663,1.405-2.031,2.329-4.106l9.737-21.724h0.382l9.818,22.327c0.937,2.115,1.706,3.447,2.309,3.995
				c0.455,0.415,1.098,0.656,1.928,0.723v0.743h-13.171v-0.743h0.542c1.057,0,1.8-0.147,2.229-0.442
				c0.294-0.214,0.441-0.522,0.441-0.924c0-0.241-0.04-0.488-0.12-0.743c-0.027-0.121-0.228-0.623-0.603-1.506L424.842,110.591z
				 M424.16,109.105l-4.056-9.376l-4.177,9.376H424.16z"/>
		</g>
	</g>
</g>
<g id="Background_Simple" style="display:none;">
	<g style="display:inline;">
		<path style="fill:#E0E0E0;" d="M450.542,105.99c-9.686-27.728-31.869-51.566-58.207-64.563
			c-36.43-17.976-84.833-6.7-109.567,25.526c-13.474,17.555-19.856,39.344-28.628,59.661c-8.772,20.317-21.472,40.728-41.796,49.482
			c-23.176,9.983-50.155,2.384-74.891,7.375c-38.738,7.817-66.045,48.015-65.362,87.528c0.358,20.744,7.445,40.406,18.881,57.538
			c14.809,22.186,36.613,38.742,61.606,48.061c49.352,18.4,109.547,29.362,160.129,19.274
			c58.26-11.619,116.985-56.985,139.051-112.142c10.918-27.29,11.219-61.413,11.375-90.805
			C463.287,163.555,460.228,133.717,450.542,105.99z"/>
	</g>
</g>
<g id="Desk">
	<g>
		<g>
			<g>
				<g>
					<polygon style="fill:#E0E0E0;" points="7.253,348.646 10.982,361.754 366.69,465.051 489.042,384.305 489.042,373.293 					"/>
				</g>
				<g>
					<polygon style="fill:#EBEBEB;" points="134.857,289.385 489.042,373.293 366.69,453.132 7.253,348.646 					"/>
				</g>
			</g>
		</g>
		<g>
			<g>
				<path style="fill:#EBEBEB;" d="M375.907,447.612c0.126,0.07-1.88,3.93-4.48,8.62c-2.601,4.692-4.81,8.438-4.936,8.368
					c-0.126-0.07,1.88-3.929,4.481-8.621C373.571,451.289,375.781,447.543,375.907,447.612z"/>
			</g>
		</g>
		<g>
			<g>
				<path style="fill:#EBEBEB;" d="M387.597,439.988c0.126,0.07-1.88,3.93-4.48,8.62c-2.601,4.692-4.81,8.438-4.936,8.368
					c-0.126-0.07,1.88-3.929,4.481-8.621C385.261,443.665,387.471,439.919,387.597,439.988z"/>
			</g>
		</g>
		<g>
			<g>
				<path style="fill:#EBEBEB;" d="M399.287,432.365c0.126,0.07-1.88,3.93-4.48,8.62c-2.601,4.692-4.81,8.438-4.936,8.368
					c-0.126-0.07,1.88-3.929,4.481-8.621C396.951,436.042,399.161,432.295,399.287,432.365z"/>
			</g>
		</g>
		<g>
			<g>
				<path style="fill:#EBEBEB;" d="M410.977,424.741c0.126,0.07-1.88,3.93-4.48,8.62c-2.601,4.692-4.81,8.438-4.936,8.368
					c-0.126-0.07,1.88-3.929,4.481-8.621C408.641,428.418,410.851,424.671,410.977,424.741z"/>
			</g>
		</g>
		<g>
			<g>
				<path style="fill:#EBEBEB;" d="M422.667,417.117c0.126,0.07-1.88,3.93-4.48,8.62c-2.601,4.692-4.81,8.438-4.936,8.368
					c-0.126-0.07,1.88-3.929,4.481-8.621C420.331,420.794,422.541,417.047,422.667,417.117z"/>
			</g>
		</g>
		<g>
			<g>
				<path style="fill:#EBEBEB;" d="M434.357,409.493c0.126,0.07-1.88,3.93-4.48,8.62c-2.601,4.692-4.81,8.438-4.936,8.368
					c-0.126-0.07,1.88-3.929,4.481-8.621C432.021,413.17,434.231,409.423,434.357,409.493z"/>
			</g>
		</g>
		<g>
			<g>
				<path style="fill:#EBEBEB;" d="M446.047,401.869c0.126,0.07-1.88,3.93-4.48,8.62c-2.601,4.692-4.81,8.438-4.936,8.368
					c-0.126-0.07,1.88-3.929,4.481-8.621C443.711,405.546,445.921,401.799,446.047,401.869z"/>
			</g>
		</g>
		<g>
			<g>
				<path style="fill:#EBEBEB;" d="M457.737,394.245c0.126,0.07-1.88,3.93-4.48,8.62c-2.601,4.692-4.81,8.438-4.936,8.368
					c-0.126-0.07,1.88-3.929,4.481-8.621C455.401,397.922,457.611,394.175,457.737,394.245z"/>
			</g>
		</g>
		<g>
			<g>
				<path style="fill:#EBEBEB;" d="M469.426,386.621c0.126,0.07-1.88,3.93-4.48,8.62c-2.601,4.692-4.81,8.438-4.936,8.368
					c-0.126-0.07,1.88-3.929,4.481-8.621C467.091,390.298,469.301,386.552,469.426,386.621z"/>
			</g>
		</g>
		<g>
			<g>
				<path style="fill:#EBEBEB;" d="M481.116,378.997c0.126,0.07-1.88,3.93-4.48,8.62c-2.601,4.692-4.81,8.438-4.936,8.368
					s1.88-3.929,4.481-8.621C478.781,382.674,480.991,378.928,481.116,378.997z"/>
			</g>
		</g>
		<g>
			<g>
				<path style="fill:#EBEBEB;" d="M489.047,378.156c0.126,0.07-1.039,2.411-2.6,5.229c-1.562,2.819-2.93,5.047-3.056,4.977
					c-0.126-0.07,1.038-2.41,2.601-5.229C487.553,380.315,488.921,378.087,489.047,378.156z"/>
			</g>
		</g>
		<g>
			<g>
				<path style="fill:#EBEBEB;" d="M363.56,463.948c-0.052,0.047-0.85-0.723-2.073-2.032c-1.223-1.308-2.865-3.161-4.601-5.272
					c-1.737-2.112-3.239-4.08-4.287-5.532c-1.048-1.453-1.65-2.384-1.594-2.426c0.059-0.044,0.765,0.81,1.887,2.202
					c1.231,1.519,2.734,3.374,4.396,5.425c1.692,2.026,3.222,3.858,4.475,5.359C362.913,463.04,363.615,463.898,363.56,463.948z"/>
			</g>
		</g>
		<g>
			<g>
				<path style="fill:#EBEBEB;" d="M347.07,459.261c-0.052,0.047-0.85-0.723-2.073-2.032c-1.223-1.308-2.865-3.161-4.601-5.272
					c-1.737-2.112-3.239-4.08-4.287-5.532c-1.049-1.452-1.65-2.384-1.594-2.426c0.06-0.044,0.765,0.81,1.887,2.202
					c1.231,1.519,2.734,3.374,4.396,5.425c1.692,2.026,3.222,3.858,4.475,5.359C346.423,458.354,347.125,459.211,347.07,459.261z"/>
			</g>
		</g>
		<g>
			<g>
				<path style="fill:#EBEBEB;" d="M330.58,454.574c-0.052,0.047-0.85-0.723-2.073-2.032c-1.223-1.308-2.865-3.161-4.601-5.272
					c-1.736-2.112-3.239-4.08-4.287-5.532c-1.048-1.452-1.65-2.384-1.594-2.426c0.06-0.044,0.765,0.81,1.887,2.202
					c1.231,1.519,2.734,3.374,4.396,5.425c1.692,2.026,3.222,3.858,4.475,5.359C329.933,453.667,330.635,454.525,330.58,454.574z"/>
			</g>
		</g>
		<g>
			<g>
				<path style="fill:#EBEBEB;" d="M314.09,449.888c-0.051,0.047-0.85-0.723-2.073-2.032c-1.223-1.308-2.865-3.161-4.602-5.272
					c-1.736-2.112-3.239-4.08-4.287-5.532c-1.048-1.452-1.65-2.384-1.594-2.425c0.059-0.044,0.765,0.81,1.886,2.202
					c1.231,1.519,2.734,3.374,4.396,5.425c1.692,2.026,3.222,3.858,4.475,5.359C313.443,448.981,314.145,449.838,314.09,449.888z"/>
			</g>
		</g>
		<g>
			<g>
				<path style="fill:#EBEBEB;" d="M297.601,445.201c-0.051,0.047-0.85-0.723-2.073-2.032c-1.223-1.308-2.865-3.161-4.602-5.272
					c-1.737-2.112-3.238-4.08-4.287-5.532c-1.048-1.452-1.65-2.384-1.594-2.426c0.059-0.044,0.765,0.81,1.887,2.202
					c1.231,1.519,2.734,3.374,4.396,5.425c1.692,2.026,3.222,3.858,4.475,5.359C296.954,444.294,297.655,445.151,297.601,445.201z"
					/>
			</g>
		</g>
		<g>
			<g>
				<path style="fill:#EBEBEB;" d="M281.111,440.515c-0.052,0.047-0.85-0.723-2.073-2.032c-1.223-1.308-2.865-3.161-4.601-5.272
					c-1.737-2.112-3.239-4.08-4.287-5.532c-1.048-1.452-1.65-2.384-1.594-2.426c0.059-0.044,0.765,0.81,1.886,2.202
					c1.231,1.519,2.734,3.374,4.396,5.425c1.692,2.026,3.222,3.858,4.475,5.359C280.464,439.608,281.165,440.465,281.111,440.515z"
					/>
			</g>
		</g>
		<g>
			<g>
				<path style="fill:#EBEBEB;" d="M264.621,435.828c-0.051,0.047-0.85-0.723-2.073-2.032c-1.223-1.309-2.865-3.161-4.601-5.272
					c-1.737-2.112-3.239-4.08-4.287-5.532c-1.048-1.452-1.65-2.384-1.594-2.426c0.059-0.044,0.765,0.81,1.886,2.202
					c1.231,1.519,2.734,3.374,4.396,5.425c1.692,2.026,3.222,3.858,4.475,5.359C263.974,434.921,264.676,435.778,264.621,435.828z"
					/>
			</g>
		</g>
		<g>
			<g>
				<path style="fill:#EBEBEB;" d="M248.131,430.214c-0.052,0.047-0.85-0.723-2.073-2.032c-1.223-1.308-2.865-3.162-4.601-5.272
					c-1.737-2.112-3.239-4.08-4.287-5.532c-1.049-1.452-1.65-2.384-1.594-2.426c0.059-0.044,0.765,0.81,1.886,2.202
					c1.231,1.519,2.734,3.374,4.396,5.425c1.692,2.026,3.222,3.858,4.475,5.359C247.484,429.307,248.186,430.164,248.131,430.214z"
					/>
			</g>
		</g>
		<g>
			<g>
				<path style="fill:#EBEBEB;" d="M229.776,425.112c-0.051,0.047-0.85-0.723-2.073-2.032c-1.223-1.308-2.865-3.161-4.601-5.272
					c-1.737-2.112-3.239-4.08-4.287-5.533c-1.049-1.452-1.65-2.384-1.594-2.426c0.059-0.044,0.765,0.81,1.886,2.202
					c1.231,1.519,2.734,3.374,4.396,5.425c1.692,2.026,3.222,3.858,4.475,5.359C229.129,424.204,229.831,425.062,229.776,425.112z"
					/>
			</g>
		</g>
		<g>
			<g>
				<path style="fill:#EBEBEB;" d="M211.421,420.009c-0.052,0.047-0.85-0.723-2.073-2.032c-1.223-1.308-2.865-3.161-4.601-5.272
					c-1.737-2.112-3.239-4.08-4.287-5.532c-1.049-1.452-1.65-2.384-1.594-2.426c0.06-0.044,0.765,0.81,1.886,2.202
					c1.231,1.519,2.734,3.374,4.396,5.425c1.692,2.026,3.222,3.858,4.475,5.359C210.774,419.102,211.475,419.96,211.421,420.009z"/>
			</g>
		</g>
		<g>
			<g>
				<path style="fill:#EBEBEB;" d="M192.952,414.083c-0.051,0.047-0.85-0.723-2.073-2.032c-1.223-1.308-2.865-3.161-4.601-5.272
					c-1.737-2.112-3.239-4.08-4.287-5.532c-1.048-1.452-1.65-2.384-1.594-2.425c0.059-0.044,0.765,0.81,1.887,2.202
					c1.231,1.519,2.734,3.374,4.396,5.425c1.692,2.026,3.222,3.858,4.475,5.359C192.304,413.176,193.006,414.033,192.952,414.083z"
					/>
			</g>
		</g>
		<g>
			<g>
				<path style="fill:#EBEBEB;" d="M174.482,408.913c-0.051,0.047-0.85-0.723-2.073-2.032c-1.223-1.308-2.865-3.161-4.601-5.272
					c-1.737-2.112-3.239-4.08-4.287-5.533c-1.048-1.452-1.65-2.384-1.594-2.426c0.06-0.044,0.765,0.81,1.887,2.202
					c1.231,1.519,2.734,3.374,4.396,5.425c1.692,2.026,3.222,3.858,4.475,5.359C173.835,408.005,174.537,408.863,174.482,408.913z"
					/>
			</g>
		</g>
		<g>
			<g>
				<path style="fill:#EBEBEB;" d="M155.899,403.48c-0.051,0.047-0.85-0.723-2.073-2.032c-1.223-1.308-2.865-3.161-4.602-5.272
					c-1.737-2.112-3.239-4.08-4.287-5.532c-1.048-1.452-1.65-2.384-1.594-2.426c0.06-0.044,0.765,0.81,1.887,2.202
					c1.231,1.519,2.734,3.374,4.396,5.425c1.692,2.026,3.222,3.858,4.475,5.359C155.252,402.573,155.954,403.43,155.899,403.48z"/>
			</g>
		</g>
		<g>
			<g>
				<path style="fill:#EBEBEB;" d="M138,398.45c-0.052,0.047-0.85-0.723-2.073-2.032c-1.223-1.308-2.865-3.161-4.601-5.272
					c-1.737-2.112-3.239-4.08-4.287-5.532c-1.048-1.453-1.65-2.384-1.594-2.426c0.059-0.044,0.765,0.81,1.886,2.202
					c1.231,1.519,2.734,3.374,4.396,5.425c1.692,2.026,3.222,3.858,4.475,5.359C137.353,397.542,138.054,398.4,138,398.45z"/>
			</g>
		</g>
		<g>
			<g>
				<path style="fill:#EBEBEB;" d="M119.645,393.651c-0.051,0.047-0.85-0.723-2.073-2.032c-1.223-1.308-2.865-3.161-4.601-5.272
					c-1.737-2.112-3.239-4.08-4.287-5.533c-1.049-1.452-1.65-2.384-1.594-2.426c0.06-0.044,0.765,0.81,1.886,2.202
					c1.231,1.519,2.734,3.374,4.396,5.425c1.692,2.026,3.222,3.858,4.475,5.359C118.997,392.744,119.699,393.601,119.645,393.651z"
					/>
			</g>
		</g>
		<g>
			<g>
				<path style="fill:#EBEBEB;" d="M103.515,388.27c-0.051,0.047-0.85-0.723-2.073-2.032c-1.223-1.308-2.865-3.161-4.601-5.272
					c-1.736-2.112-3.239-4.08-4.287-5.532c-1.049-1.452-1.65-2.384-1.594-2.426c0.059-0.044,0.765,0.81,1.886,2.202
					c1.231,1.519,2.734,3.374,4.396,5.425c1.692,2.026,3.222,3.858,4.475,5.359C102.868,387.362,103.569,388.22,103.515,388.27z"/>
			</g>
		</g>
		<g>
			<g>
				<path style="fill:#EBEBEB;" d="M87.385,382.888c-0.052,0.047-0.85-0.723-2.073-2.032c-1.223-1.308-2.865-3.162-4.601-5.272
					c-1.736-2.112-3.239-4.08-4.287-5.532c-1.049-1.452-1.65-2.384-1.594-2.426c0.059-0.044,0.765,0.81,1.886,2.202
					c1.231,1.519,2.734,3.374,4.396,5.425c1.692,2.026,3.222,3.858,4.475,5.359C86.738,381.981,87.44,382.838,87.385,382.888z"/>
			</g>
		</g>
		<g>
			<g>
				<path style="fill:#EBEBEB;" d="M72.76,378.889c-0.052,0.047-0.85-0.723-2.073-2.032c-1.223-1.308-2.865-3.161-4.601-5.272
					c-1.737-2.112-3.239-4.08-4.287-5.532c-1.049-1.453-1.65-2.384-1.594-2.426c0.06-0.044,0.765,0.81,1.887,2.202
					c1.231,1.519,2.734,3.374,4.396,5.425c1.692,2.026,3.222,3.858,4.475,5.359C72.113,377.982,72.815,378.839,72.76,378.889z"/>
			</g>
		</g>
		<g>
			<g>
				<path style="fill:#EBEBEB;" d="M56.001,374.308c-0.051,0.047-0.85-0.723-2.073-2.032c-1.223-1.308-2.865-3.161-4.601-5.272
					c-1.737-2.112-3.239-4.08-4.287-5.532c-1.049-1.452-1.65-2.384-1.594-2.426c0.06-0.044,0.765,0.81,1.887,2.202
					c1.231,1.519,2.734,3.374,4.396,5.425c1.692,2.026,3.222,3.858,4.475,5.359C55.354,373.401,56.055,374.259,56.001,374.308z"/>
			</g>
		</g>
		<g>
			<g>
				<path style="fill:#EBEBEB;" d="M40.746,369.876c-0.052,0.047-0.85-0.723-2.073-2.032c-1.223-1.308-2.865-3.161-4.601-5.272
					c-1.737-2.112-3.239-4.08-4.287-5.532c-1.048-1.453-1.65-2.384-1.594-2.426c0.059-0.044,0.765,0.81,1.886,2.202
					c1.231,1.519,2.734,3.374,4.396,5.425c1.692,2.026,3.222,3.858,4.475,5.359C40.099,368.969,40.801,369.826,40.746,369.876z"/>
			</g>
		</g>
		<g>
			<g>
				<path style="fill:#EBEBEB;" d="M23.508,364.495c-0.052,0.047-0.85-0.723-2.073-2.032c-1.223-1.308-2.865-3.161-4.601-5.272
					c-1.737-2.112-3.239-4.08-4.287-5.532c-1.049-1.452-1.65-2.384-1.594-2.426c0.059-0.044,0.765,0.81,1.887,2.202
					c1.231,1.519,2.734,3.374,4.396,5.425c1.692,2.026,3.222,3.858,4.475,5.359C22.861,363.588,23.563,364.445,23.508,364.495z"/>
			</g>
		</g>
	</g>
</g>
<g id="Lamp">
	<g>
		<g>
			<g>
				<g>
					<path style="fill:#263238;" d="M80.563,356.807c-7.064-3.028-7.871-12.766-1.328-16.798c3.927-2.42,9.142-4.482,15.876-5.059
						c7.169-0.614,13.068,0.986,17.633,3.215c6.891,3.363,7.056,14.295-0.721,18.111C100.85,361.759,91.41,361.457,80.563,356.807z"
						/>
				</g>
				<g>
					<g>
						<path style="fill:#263238;" d="M92.101,222.464c0,0,0.319-0.043,1.02-0.113c0.727-0.068,1.801-0.17,3.268-0.308l0.069-0.007
							l0.002,0.071c0.3,13.108,1.062,60.445,1.87,116.753c0.002,0.118,0.003,0.235,0.005,0.343l0.004,0.243l-0.243,0.02
							c-1.262,0.104-2.504,0.207-3.662,0.303l-0.277,0.023l-0.005-0.277c-0.602-32.56-1.143-61.849-1.535-83.017
							c-0.175-10.539-0.316-19.056-0.414-24.958c-0.041-2.918-0.073-5.189-0.095-6.75c-0.007-0.754-0.012-1.333-0.016-1.745
							C92.092,222.655,92.101,222.464,92.101,222.464s0.017,0.215,0.031,0.617c0.013,0.419,0.031,1.009,0.054,1.778
							c0.04,1.574,0.098,3.864,0.173,6.807c0.136,5.915,0.331,14.451,0.573,25.014c0.444,21.12,1.058,50.341,1.741,82.827
							l-0.282-0.254c1.158-0.096,2.4-0.199,3.662-0.303l-0.239,0.263c-0.002-0.108-0.003-0.226-0.005-0.343
							c-0.808-56.309-1.405-103.648-1.481-116.759l0.071,0.064c-1.453,0.103-2.518,0.179-3.238,0.23
							C92.454,222.451,92.101,222.464,92.101,222.464z"/>
					</g>
				</g>
				<g>
					<g>
						<path style="fill:#263238;" d="M85.026,233.545c0,0,0.17-0.127,0.528-0.37c0.375-0.251,0.908-0.609,1.602-1.074
							c1.435-0.952,3.524-2.34,6.214-4.125c5.437-3.592,13.288-8.779,23.003-15.198c19.526-12.853,46.542-30.636,76.569-50.4
							l0.223-0.147l0.141,0.227c0.734,1.184,1.525,2.463,2.32,3.746c0.082,0.133,0.164,0.265,0.241,0.389l0.135,0.217l-0.215,0.139
							c-52.919,34.189-97.244,62.724-108.732,70.01l-0.053,0.034l-0.031-0.054c-0.665-1.15-1.154-1.997-1.488-2.573
							C85.164,233.807,85.026,233.545,85.026,233.545s0.179,0.272,0.518,0.823c0.343,0.562,0.846,1.387,1.53,2.509l-0.084-0.02
							c11.364-7.478,55.596-36.156,108.515-70.346l-0.08,0.356c-0.077-0.124-0.159-0.256-0.241-0.389
							c-0.795-1.283-1.586-2.561-2.32-3.746l0.364,0.081c-30.01,19.655-57.012,37.339-76.527,50.121
							c-9.773,6.377-17.67,11.53-23.14,15.099c-2.729,1.772-4.85,3.149-6.305,4.095c-0.716,0.46-1.264,0.813-1.651,1.062
							C85.231,233.425,85.026,233.545,85.026,233.545z"/>
					</g>
				</g>
				<g>
					<path style="fill:#263238;" d="M99.396,230.93c0.099,3.078-2.316,5.653-5.394,5.752c-3.078,0.099-5.653-2.316-5.752-5.394
						c-0.099-3.078,2.316-5.653,5.394-5.752C96.722,225.438,99.297,227.852,99.396,230.93z"/>
				</g>
				<g>
					<path style="fill:#E8505B;" d="M188.897,171.357c0,0-13.37,7.595-4.102,39.541c0,0,36.529-0.458,50.188-21.319
						c0,0-13.055-27.167-29.449-24.49L188.897,171.357z"/>
				</g>
				<g>
					<path style="fill:#E8505B;" d="M189.315,165.687l-2.923-7.663c-1.307-3.427,0.64-7.233,4.185-8.177l0,0
						c3.046-0.811,6.214,0.799,7.354,3.737l3.281,8.454L189.315,165.687z"/>
				</g>
				<g>
					<polygon style="fill:#263238;" points="188.897,171.357 189.132,165.207 200.57,160.381 205.534,165.09 					"/>
				</g>
			</g>
			<g>
				<g>
					<path style="fill:#455A64;" d="M116.698,341.821c0.018,0.001,0.017,0.191-0.002,0.553c-0.007,0.363-0.077,0.895-0.199,1.575
						c-0.271,1.344-0.905,3.31-2.425,5.292c-1.499,1.983-3.9,3.87-6.922,5.143c-3.019,1.292-6.61,1.96-10.365,2.11
						c-1.88,0.073-3.716,0.04-5.483-0.056c-1.767-0.096-3.477-0.26-5.084-0.576c-3.212-0.605-6.002-1.924-7.787-3.677
						c-1.825-1.714-2.683-3.64-2.978-4.985c-0.146-0.679-0.184-1.218-0.182-1.581c0.011-0.364,0.025-0.553,0.043-0.553
						c0.062-0.003-0.01,0.771,0.336,2.085c0.348,1.297,1.23,3.135,3.032,4.764c1.762,1.663,4.468,2.904,7.626,3.475
						c1.578,0.297,3.266,0.449,5.02,0.537c1.756,0.089,3.576,0.118,5.435,0.045c3.712-0.148,7.237-0.793,10.201-2.032
						c2.966-1.222,5.321-3.026,6.818-4.928c1.515-1.9,2.19-3.798,2.517-5.109C116.61,342.579,116.642,341.816,116.698,341.821z"/>
				</g>
			</g>
		</g>
		<g>
			<g>
				<path style="fill:#FFFFFF;" d="M229.34,182.98c0.012,0.013-0.107,0.146-0.346,0.386c-0.286,0.278-0.637,0.62-1.063,1.035
					c-0.461,0.451-1.037,0.989-1.741,1.576c-0.699,0.591-1.474,1.292-2.398,1.982c-0.907,0.712-1.907,1.485-3.029,2.247
					c-1.096,0.802-2.33,1.562-3.617,2.381c-2.612,1.576-5.574,3.164-8.8,4.581c-3.238,1.392-6.42,2.476-9.355,3.31
					c-1.477,0.382-2.876,0.766-4.209,1.021c-1.323,0.301-2.57,0.505-3.71,0.682c-1.135,0.205-2.176,0.293-3.085,0.401
					c-0.908,0.115-1.695,0.169-2.339,0.198c-0.594,0.029-1.083,0.052-1.482,0.071c-0.339,0.01-0.517,0.007-0.518-0.011
					c-0.001-0.018,0.175-0.05,0.511-0.094c0.395-0.045,0.881-0.101,1.471-0.168c0.639-0.061,1.421-0.143,2.322-0.285
					c0.902-0.135,1.934-0.248,3.06-0.475c1.13-0.2,2.366-0.423,3.677-0.741c1.322-0.271,2.707-0.668,4.171-1.061
					c2.908-0.855,6.063-1.944,9.277-3.326c3.203-1.408,6.15-2.971,8.759-4.514c1.285-0.803,2.521-1.545,3.62-2.326
					c1.127-0.742,2.133-1.493,3.05-2.183c0.934-0.668,1.721-1.346,2.435-1.913c0.719-0.563,1.312-1.077,1.793-1.503
					c0.452-0.385,0.824-0.703,1.127-0.961C229.184,183.074,229.328,182.967,229.34,182.98z"/>
			</g>
		</g>
	</g>
</g>
<g id="Cat">
	<g>
		<g>
			<path style="fill:#E0E0E0;" d="M310.339,436.387c6.522-0.035,12.936-3.44,16.619-8.823c1.688-2.467,2.966-5.443,5.586-6.883
				c4.222-2.32,9.268,0.505,13.599,2.615c8.899,4.334,19.863,5.597,28.573,0.896c4.502-2.43,8.211-6.314,13.032-8.028
				c4.383-1.559,9.191-1.148,13.819-0.667c4.627,0.481,9.405,0.999,13.851-0.37c4.446-1.369,8.505-5.169,8.609-9.821
				c0.096-4.291-3.22-8.087-7.155-9.802c-3.935-1.715-8.378-1.747-12.666-1.545c-23.924,1.13-47.416,8.668-71.343,7.607
				c-4.679-0.208-9.739-0.652-13.679,1.879c-5.139,3.302-6.274,10.249-6.458,16.354c-0.184,6.105-0.112,12.816-4.046,17.488"/>
		</g>
		<g>
			<g>
				<path style="fill:#E8505B;" d="M309.3,379.361c-0.351,0.468-2.055,3.848-2.221,4.409c-0.936,3.16-4.384,14.402,0.02,20.275
					c4.968,6.626,32.998,6.441,35.247,6.416c0.096-0.001,0.19-0.005,0.285-0.012l40.739-2.874c0.431-0.03,0.856-0.117,1.265-0.258
					l34.947-12.026c0.847-0.291,1.599-0.806,2.176-1.49l0,0c1.793-2.124,1.492-5.306-0.667-7.056l-26.157-21.192
					c-0.542-0.439-1.166-0.759-1.84-0.938c-4.872-1.289-26.262-6.276-50.68-1.752C325.879,365.927,317.576,368.307,309.3,379.361z"
					/>
			</g>
			<g>
				<path style="fill:#E8505B;" d="M418.191,394.549c-2.054,1.362-2.659,4.489-1.262,6.518c1.639,2.381,5.307,2.68,7.773,1.172
					c2.466-1.508,3.847-4.342,4.413-7.176c0.399-1.995,0.348-4.342-1.153-5.715c-1.022-0.935-2.478-1.191-3.851-1.375
					c-3.892-0.522-7.818-0.792-11.745-0.808"/>
			</g>
			<g style="opacity:0.3;">
				<g>
					<path d="M405.589,388.341c2.726,0.949,8.537,2.755,11.422,2.845c2.885,0.09,5.947-0.824,7.785-3.05
						c0.308-0.374,0.588-0.787,0.996-1.049c0.408-0.262,0.997-0.323,1.346,0.012c0.449,0.432,0.244,1.184-0.043,1.738
						c-1.646,3.177-5.098,5.335-8.675,5.423C414.844,394.347,407.388,391.434,405.589,388.341"/>
				</g>
			</g>
			<g>
				<path style="fill:#E8505B;" d="M406.129,355.321c0,0-16.483,2.335-11.933,20.304s22.782,17.151,26.032,16.688
					c0.813-0.116,1.845-0.542,2.956-1.187c4.958-2.881,8.117-8.087,8.73-13.789l0.093-0.861l9.591-9.016
					c0,0-2.769-1.507-12.599-0.386l-12.004-9.236c0,0,1.395-11.183-0.07-12.018C415.46,344.985,406.129,355.321,406.129,355.321z"/>
			</g>
			<g>
				<path style="fill:#E8505B;" d="M306.834,386.25c-2.966,5.253-1.874,11.762-0.755,17.69c1.119,5.928,2.073,12.497-1.096,17.63
					c-2.346,3.799-6.871,6.141-11.327,5.861c-3.815-0.24-7.268-2.201-10.817-3.619c-3.549-1.418-7.746-2.267-11.068-0.376
					c-3.539,2.015-4.905,6.767-3.78,10.681c1.126,3.914,4.284,6.984,7.861,8.93c7.504,4.084,17.05,3.682,24.607-0.303
					c7.557-3.985,13.128-11.254,15.854-19.35c2.726-8.097,2.748-16.954,0.94-25.305"/>
			</g>
			<g>
				<path style="fill:#263238;" d="M412.574,372.728l0.348,4.936l4.028-1.59C416.951,376.074,415.468,373.046,412.574,372.728z"/>
			</g>
			<g style="opacity:0.3;">
				<g>
					<path d="M360.658,409.432c2.738-0.949,4.64-3.684,5.021-6.557c0.381-2.873-0.601-5.813-2.258-8.191
						c-3.749-5.38-11.131-7.913-17.393-5.97c-1.174,0.364-2.444,1.025-2.733,2.22c-0.234,0.966,0.284,1.984,1.024,2.648
						c0.74,0.664,1.676,1.057,2.568,1.496c6.284,3.094,11.035,9.14,12.555,15.978"/>
				</g>
			</g>
			<g>
				<path style="fill:#E8505B;" d="M338.69,387.239c6.164-1.047,12.783,1.107,17.149,5.582c4.366,4.475,6.358,11.145,5.159,17.281
					c2.532,0.79,5.258,0.187,7.866-0.294c2.608-0.482,5.451-0.803,7.785,0.457c2.334,1.26,3.592,4.733,1.756,6.647
					c-0.939,0.979-2.363,1.278-3.696,1.53c-7.359,1.391-14.993,2.777-22.263,0.975c-4.323-1.072-8.289-3.223-12.201-5.354
					c-4.335-2.361-3.943-1.491-8.278-3.852"/>
			</g>
			<g style="opacity:0.3;">
				<g>
					<path d="M409.136,398.179c-1.329-0.318-2.658-0.637-3.987-0.955c-1.871-0.448-3.773-0.908-5.438-1.873
						c-1.665-0.965-3.09-2.524-3.426-4.419c-0.282-1.591,0.473-3.5,2.036-3.911c1.237-0.325,2.493,0.353,3.593,1.006
						c3.111,1.847,6.223,3.695,9.334,5.542c0.683,0.406,1.408,0.857,1.726,1.584c0.426,0.974-0.057,2.17-0.898,2.821
						c-0.841,0.651-1.948,0.85-3.012,0.867"/>
				</g>
			</g>
			<g>
				<path style="fill:#E8505B;" d="M379.675,393.068c0.249,4.307,2.698,8.339,6.151,10.925c3.453,2.586,7.823,3.794,12.137,3.828
					c4.321,0.034,8.767-1.035,12.888,0.263c2.668,0.841,4.957,2.614,7.599,3.532c2.642,0.919,6.096,0.666,7.564-1.715
					c1.349-2.187,0.309-5.207-1.63-6.892c-1.939-1.685-4.531-2.362-7.023-2.988c-3.793-0.953-7.586-1.906-11.38-2.859
					c-2.344-0.589-4.76-1.212-6.678-2.683c-1.917-1.471-3.217-4.03-2.484-6.333"/>
			</g>
			<g>
				<g>
					<path style="fill:#263238;" d="M417.458,380.626c0.028,0.039-0.763,0.416-2.086,0.149c-0.64-0.149-1.424-0.439-2.05-1.139
						c-0.298-0.347-0.547-0.842-0.508-1.394c0.032-0.522,0.317-1.122,0.916-1.357l0.209,0.476c-0.1,0.043-0.203,0.1-0.315,0.138
						c-1.029,0.4-2.138,0.312-2.998-0.069c-0.877-0.379-1.461-1.061-1.783-1.675c-0.642-1.282-0.364-2.203-0.323-2.172
						c0.096-0.01-0.022,0.876,0.644,1.99c0.334,0.538,0.877,1.109,1.65,1.415c0.762,0.311,1.736,0.371,2.621,0.025
						c0.096-0.033,0.185-0.082,0.271-0.118l0.209,0.476c-0.346,0.126-0.567,0.523-0.596,0.907c-0.036,0.385,0.13,0.756,0.367,1.054
						c0.493,0.597,1.198,0.917,1.774,1.092C416.653,380.763,417.449,380.534,417.458,380.626z"/>
				</g>
			</g>
			<g>
				<g>
					<path style="fill:#263238;" d="M426.11,379.947c0.025,0.059-0.325,0.295-0.983,0.446c-0.649,0.152-1.623,0.183-2.606-0.187
						c-0.987-0.365-1.694-1.055-2.058-1.618c-0.37-0.57-0.438-0.993-0.379-1.013c0.074-0.031,0.26,0.324,0.672,0.79
						c0.408,0.463,1.071,1.029,1.948,1.354C424.494,380.391,426.081,379.795,426.11,379.947z"/>
				</g>
			</g>
			<g>
				<g>
					<path style="fill:#263238;" d="M394.387,357.207c0.043-0.038,3.234,3.59,7.126,8.102c3.893,4.513,7.013,8.201,6.969,8.239
						c-0.043,0.037-3.234-3.59-7.127-8.103C397.464,360.934,394.343,357.245,394.387,357.207z"/>
				</g>
			</g>
			<g>
				<g>
					<path style="fill:#263238;" d="M398.852,351.805c0.052-0.025,2.276,4.488,4.967,10.078c2.692,5.592,4.832,10.145,4.78,10.169
						c-0.052,0.025-2.276-4.487-4.968-10.079C400.94,356.383,398.8,351.83,398.852,351.805z"/>
				</g>
			</g>
			<g>
				<g>
					<path style="fill:#263238;" d="M378.368,417.177c-0.045,0.007-0.018-0.499-0.382-1.176c-0.35-0.671-1.148-1.458-2.255-1.834
						c-1.112-0.371-2.203-0.34-2.972-0.3c-0.774,0.047-1.254,0.104-1.258,0.072c-0.002-0.014,0.115-0.045,0.33-0.086
						c0.215-0.041,0.527-0.091,0.917-0.132c0.772-0.078,1.89-0.136,3.051,0.25c1.163,0.395,1.986,1.243,2.319,1.964
						c0.171,0.361,0.243,0.68,0.259,0.901C378.395,417.055,378.38,417.177,378.368,417.177z"/>
				</g>
			</g>
			<g>
				<g>
					<path style="fill:#263238;" d="M378.809,413.669c-0.037,0.013-0.147-0.428-0.541-1.021c-0.383-0.588-1.108-1.315-2.128-1.673
						c-1.022-0.354-2.042-0.234-2.707-0.012c-0.677,0.22-1.037,0.497-1.058,0.464c-0.007-0.01,0.074-0.089,0.241-0.206
						c0.167-0.118,0.426-0.266,0.768-0.397c0.675-0.266,1.745-0.42,2.824-0.046c1.077,0.378,1.82,1.163,2.184,1.791
						c0.187,0.316,0.298,0.592,0.355,0.788C378.806,413.553,378.821,413.666,378.809,413.669z"/>
				</g>
			</g>
			<g>
				<g>
					<path style="fill:#263238;" d="M318.581,388.603c0.057,0.027-0.898,0.828-1.373,2.649c-0.236,0.897-0.339,2.013-0.227,3.236
						c0.109,1.225,0.445,2.544,0.845,3.912c0.401,1.37,0.807,2.676,1.037,3.901c0.233,1.224,0.293,2.356,0.205,3.297
						c-0.089,0.941-0.31,1.682-0.519,2.165c-0.208,0.485-0.383,0.721-0.383,0.721c-0.02-0.011,0.126-0.263,0.308-0.751
						c0.184-0.486,0.379-1.22,0.448-2.147c0.067-0.927-0.006-2.041-0.247-3.248c-0.237-1.209-0.647-2.507-1.049-3.88
						c-0.401-1.372-0.736-2.706-0.836-3.954c-0.103-1.245,0.017-2.381,0.276-3.291c0.261-0.911,0.644-1.589,0.964-2.007
						C318.349,388.784,318.581,388.603,318.581,388.603z"/>
				</g>
			</g>
			<g>
				<g>
					<path style="fill:#263238;" d="M382.24,387.384c0.007,0.001,0.003,0.075-0.012,0.214c-0.024,0.191-0.048,0.39-0.074,0.603
						c-0.079,0.521-0.137,1.284-0.151,2.224c-0.022,0.941,0.056,2.062,0.241,3.291c0.208,1.225,0.537,2.556,1.036,3.902
						c0.516,1.34,1.149,2.556,1.803,3.614c0.675,1.044,1.357,1.937,1.996,2.629c0.632,0.696,1.18,1.23,1.584,1.568
						c0.161,0.143,0.31,0.276,0.454,0.404c0.103,0.094,0.154,0.147,0.15,0.152c0,0-0.99-0.645-2.297-2.025
						c-0.658-0.684-1.359-1.576-2.049-2.625c-0.669-1.062-1.315-2.289-1.836-3.643c-0.504-1.36-0.831-2.707-1.031-3.946
						c-0.176-1.243-0.24-2.376-0.198-3.324C381.923,388.523,382.24,387.384,382.24,387.384z"/>
				</g>
			</g>
			<g>
				<g>
					<path style="fill:#263238;" d="M414.873,399.508c-0.008,0.017-0.308-0.117-0.864-0.32c-0.556-0.204-1.374-0.463-2.404-0.709
						c-2.048-0.535-4.997-0.787-8.099-1.814c-1.538-0.531-2.942-1.27-4.003-2.219c-1.061-0.947-1.769-2.051-2.155-3.051
						c-0.384-1.005-0.459-1.89-0.417-2.485c0.041-0.598,0.155-0.912,0.155-0.912c0.074-0.018-0.405,1.356,0.398,3.343
						c0.395,0.971,1.101,2.043,2.145,2.961c1.043,0.919,2.424,1.642,3.944,2.166c3.063,1.016,6.015,1.294,8.066,1.868
						c1.031,0.266,1.848,0.547,2.398,0.776C414.589,399.339,414.873,399.508,414.873,399.508z"/>
				</g>
			</g>
			<g>
				<g>
					<path style="fill:#263238;" d="M424.964,411.436c-0.032,0.017-0.236-0.363-0.656-0.908c-0.418-0.545-1.081-1.237-1.952-1.821
						c-0.874-0.58-1.768-0.927-2.432-1.103c-0.665-0.178-1.094-0.22-1.09-0.257c0.001-0.014,0.109-0.015,0.305-0.005
						c0.196,0.007,0.477,0.046,0.82,0.119c0.686,0.142,1.615,0.477,2.512,1.073c0.895,0.599,1.56,1.328,1.955,1.907
						c0.199,0.289,0.343,0.534,0.425,0.712C424.936,411.33,424.977,411.43,424.964,411.436z"/>
				</g>
			</g>
			<g>
				<g>
					<path style="fill:#263238;" d="M427.106,408.37c-0.035,0.012-0.146-0.392-0.495-0.95c-0.342-0.555-0.968-1.256-1.868-1.692
						c-0.901-0.434-1.84-0.489-2.487-0.411c-0.654,0.074-1.039,0.239-1.052,0.203c-0.005-0.012,0.085-0.065,0.26-0.137
						c0.174-0.072,0.437-0.155,0.772-0.212c0.663-0.118,1.65-0.088,2.598,0.369c0.947,0.458,1.585,1.212,1.904,1.805
						c0.163,0.298,0.262,0.555,0.314,0.736C427.104,408.263,427.118,408.367,427.106,408.37z"/>
				</g>
			</g>
			<g>
				<g>
					<path style="fill:#263238;" d="M424.22,393.93c-0.01,0.045-0.659-0.2-1.748-0.218c-1.075-0.023-2.619,0.248-3.975,1.215
						c-0.684,0.463-1.244,1.03-1.613,1.637c-0.368,0.608-0.533,1.242-0.583,1.777c-0.098,1.081,0.142,1.747,0.084,1.754
						c0,0-0.292-0.646-0.231-1.766c0.033-0.554,0.189-1.221,0.565-1.863c0.377-0.64,0.957-1.235,1.66-1.71
						c1.397-0.996,3.003-1.254,4.097-1.191c0.555,0.024,0.996,0.118,1.293,0.202C424.067,393.849,424.224,393.919,424.22,393.93z"/>
				</g>
			</g>
			<g>
				<g>
					<path style="fill:#263238;" d="M423.08,396.777c0.016,0.011-0.21,0.303-0.735,0.548c-0.511,0.245-1.364,0.396-2.201,0.06
						c-0.835-0.343-1.341-1.047-1.537-1.578c-0.206-0.542-0.163-0.909-0.144-0.906c0.038-0.005,0.05,0.35,0.28,0.848
						c0.22,0.491,0.711,1.127,1.479,1.443c0.77,0.31,1.566,0.196,2.066-0.003C422.799,396.993,423.056,396.748,423.08,396.777z"/>
				</g>
			</g>
			<g>
				<g>
					<path style="fill:#263238;" d="M422.347,399.242c0.012,0.017-0.298,0.263-0.898,0.463c-0.592,0.202-1.497,0.318-2.437,0.057
						c-0.94-0.262-1.655-0.83-2.057-1.308c-0.41-0.482-0.549-0.853-0.53-0.861c0.031-0.019,0.215,0.322,0.639,0.761
						c0.417,0.438,1.112,0.958,2.004,1.207c0.893,0.248,1.756,0.161,2.339,0.002C421.996,399.407,422.33,399.21,422.347,399.242z"/>
				</g>
			</g>
			<g>
				<g>
					<path style="fill:#263238;" d="M426.512,405.838c-0.045,0.029-0.312-0.751-1.238-1.624c-0.913-0.885-2.483-1.714-4.287-2.431
						c-1.81-0.71-3.483-1.276-4.685-1.705c-0.501-0.178-0.972-0.346-1.425-0.508c-0.335-0.123-0.519-0.197-0.515-0.21
						c0.004-0.014,0.197,0.034,0.54,0.133c0.46,0.142,0.938,0.289,1.446,0.445c1.216,0.394,2.895,0.937,4.716,1.651
						c1.812,0.719,3.403,1.584,4.311,2.518c0.457,0.458,0.753,0.896,0.917,1.217C426.461,405.644,426.512,405.838,426.512,405.838z"
						/>
				</g>
			</g>
			<g>
				<g>
					<path style="fill:#263238;" d="M412.222,390.711c0,0-1.165-0.511-2.875-1.812c-1.697-1.292-3.917-3.465-5.583-6.602
						l0.183-0.071c0.391,1.492,1.128,3.042,2.227,4.399l0.347,0.428l-0.476-0.27c-0.183-0.104-0.38-0.216-0.578-0.328
						c-4.318-2.47-6.977-6.345-8.199-9.292c-0.628-1.485-0.964-2.752-1.135-3.634c-0.166-0.884-0.205-1.381-0.205-1.381
						s0.035,0.121,0.08,0.352c0.052,0.23,0.095,0.577,0.204,1.012c0.195,0.874,0.55,2.127,1.191,3.593
						c1.248,2.91,3.899,6.728,8.167,9.17c0.196,0.111,0.391,0.222,0.571,0.325l-0.129,0.158c-1.119-1.382-1.865-2.961-2.256-4.48
						l-0.211-0.819l0.394,0.748c1.637,3.112,3.817,5.286,5.484,6.597c0.836,0.661,1.546,1.128,2.039,1.435
						c0.212,0.129,0.399,0.242,0.569,0.346C412.159,390.662,412.225,390.706,412.222,390.711z"/>
				</g>
			</g>
			<g>
				<g>
					<path style="fill:#263238;" d="M361.22,383.139c-0.005,0.013-0.145-0.03-0.392-0.121c-0.249-0.088-0.601-0.236-1.029-0.437
						c-0.855-0.399-1.998-1.045-3.147-1.92c-1.147-0.878-2.072-1.81-2.682-2.53c-0.306-0.359-0.542-0.66-0.693-0.877
						c-0.153-0.215-0.231-0.338-0.22-0.347c0.027-0.021,0.387,0.437,1.022,1.126c0.634,0.689,1.564,1.594,2.699,2.462
						c1.136,0.865,2.254,1.523,3.087,1.953C360.696,382.881,361.233,383.107,361.22,383.139z"/>
				</g>
			</g>
			<g>
				<g>
					<path style="fill:#263238;" d="M361.216,381.781c-0.037,0.044-1.111-0.811-2.398-1.909c-1.288-1.099-2.301-2.024-2.263-2.068
						c0.037-0.044,1.111,0.811,2.398,1.91C360.24,380.811,361.253,381.737,361.216,381.781z"/>
				</g>
			</g>
			<g>
				<g>
					<path style="fill:#263238;" d="M363.144,381.258c-0.025,0.048-0.826-0.344-1.67-1.039c-0.848-0.691-1.389-1.399-1.347-1.433
						c0.046-0.041,0.648,0.594,1.479,1.272C362.434,380.74,363.175,381.205,363.144,381.258z"/>
				</g>
			</g>
			<g style="opacity:0.3;">
				<g>
					<path style="fill:#FFFFFF;" d="M362.472,361.037c3.01-0.061,0.921,5.016-0.351,7.381c-1.27,2.361-3.673,4.089-6.325,4.482
						c-2.582,0.383-5.243-0.422-7.81,0.05c-5.348,0.983-8.32,6.93-13.29,9.139c-3.384,1.504-7.573,1.008-10.512-1.245
						c-2.939-2.253-3.688-8.24-3.114-11.899C321.069,368.945,331.072,361.674,362.472,361.037z"/>
				</g>
			</g>
			<g style="opacity:0.3;">
				<g>
					<path style="fill:#FFFFFF;" d="M382.726,393.073c1.287-1.032,3.307-0.759,4.93-0.468c1.623,0.291,3.111,1.106,4.441,2.079
						c1.293,0.946,2.543,2.189,2.752,3.778c0.243,1.842-0.964,3.53-2.116,4.987c-0.471,0.596-0.953,1.199-1.575,1.634
						c-0.622,0.436-1.414,0.689-2.151,0.502c-0.804-0.204-1.392-0.876-1.901-1.531c-1.541-1.984-2.859-4.141-3.92-6.418
						C382.514,396.196,381.956,394.464,382.726,393.073"/>
				</g>
			</g>
			<g>
				<g>
					<path style="fill:#263238;" d="M360.999,410.103c0,0,0.011-0.128,0.051-0.368c0.033-0.241,0.119-0.589,0.171-1.047
						c0.137-0.909,0.259-2.245,0.142-3.884c-0.135-1.635-0.574-3.566-1.471-5.547c-0.908-1.963-2.127-4.065-3.714-5.988
						c-1.659-1.882-3.739-3.156-5.691-4.09c-1.973-0.917-3.85-1.51-5.441-1.931c-1.594-0.417-2.904-0.671-3.812-0.835
						c-0.402-0.07-0.746-0.13-1.047-0.182c-0.239-0.043-0.363-0.076-0.363-0.076s2.045,0.159,5.258,0.949
						c1.601,0.405,3.493,0.986,5.485,1.9c1.971,0.932,4.079,2.214,5.766,4.127c1.616,1.959,2.822,4.055,3.733,6.047
						c0.897,2.004,1.326,3.962,1.443,5.614c0.099,1.657-0.047,2.999-0.209,3.908C361.14,409.611,360.999,410.103,360.999,410.103z"
						/>
				</g>
			</g>
			<g>
				<g>
					<path style="fill:#263238;" d="M411.906,369.339c0.003,0.063-0.457,0.159-1.195,0.034c-0.73-0.119-1.74-0.512-2.577-1.318
						c-0.837-0.806-1.268-1.801-1.414-2.526c-0.153-0.733-0.074-1.196-0.011-1.195c0.08-0.004,0.135,0.439,0.366,1.096
						c0.225,0.654,0.668,1.524,1.421,2.25c0.753,0.725,1.64,1.134,2.302,1.335C411.462,369.22,411.907,369.259,411.906,369.339z"/>
				</g>
			</g>
			<g>
				<g>
					<path style="fill:#263238;" d="M415.473,379.267c-0.142,0.023-0.284-0.123-0.317-0.326c-0.033-0.203,0.055-0.386,0.197-0.409
						c0.142-0.023,0.284,0.123,0.317,0.326C415.703,379.061,415.615,379.244,415.473,379.267z"/>
				</g>
			</g>
			<g>
				<g>
					<path style="fill:#263238;" d="M416.943,378.81c-0.119,0.081-0.303,0.018-0.41-0.14c-0.108-0.159-0.099-0.353,0.02-0.433
						c0.119-0.081,0.303-0.018,0.41,0.14C417.071,378.536,417.062,378.73,416.943,378.81z"/>
				</g>
			</g>
			<g>
				<g>
					<path style="fill:#263238;" d="M416.921,379.842c-0.094,0.108-0.251,0.127-0.351,0.04c-0.099-0.086-0.104-0.244-0.009-0.353
						c0.094-0.109,0.251-0.127,0.351-0.04C417.011,379.575,417.015,379.733,416.921,379.842z"/>
				</g>
			</g>
			<g>
				<g>
					<path style="fill:#263238;" d="M410.713,375.29c-0.081,0.119-0.306,0.106-0.503-0.029c-0.197-0.135-0.29-0.34-0.209-0.459
						c0.081-0.119,0.306-0.106,0.503,0.029C410.701,374.966,410.794,375.171,410.713,375.29z"/>
				</g>
			</g>
			<g>
				<g>
					<path style="fill:#263238;" d="M411.361,373.815c-0.143,0.01-0.27-0.132-0.284-0.318c-0.013-0.186,0.093-0.344,0.236-0.354
						c0.143-0.01,0.27,0.132,0.283,0.318C411.61,373.646,411.504,373.805,411.361,373.815z"/>
				</g>
			</g>
			<g>
				<g>
					<path style="fill:#263238;" d="M411.646,375.757c-0.143-0.018-0.249-0.109-0.237-0.203c0.012-0.094,0.137-0.156,0.28-0.138
						c0.143,0.018,0.249,0.109,0.237,0.203C411.914,375.713,411.788,375.775,411.646,375.757z"/>
				</g>
			</g>
			<g>
				<g>
					<path style="fill:#263238;" d="M437.53,393.474c-0.032,0.048-4.249-2.673-9.418-6.077c-5.171-3.405-9.336-6.204-9.304-6.252
						c0.032-0.048,4.248,2.673,9.419,6.078C433.396,390.626,437.562,393.426,437.53,393.474z"/>
				</g>
			</g>
			<g>
				<g>
					<path style="fill:#263238;" d="M444.005,389.767c-0.001,0.007-0.09-0.004-0.257-0.03c-0.167-0.029-0.415-0.065-0.729-0.133
						c-0.632-0.124-1.539-0.338-2.645-0.661c-2.216-0.633-5.185-1.787-8.426-3.124c-3.18-1.309-6.056-2.492-8.308-3.419
						c-0.973-0.41-1.808-0.762-2.508-1.058c-0.246-0.108-0.469-0.206-0.678-0.297c-0.154-0.07-0.234-0.11-0.231-0.117
						c0.003-0.007,0.088,0.02,0.247,0.078c0.213,0.08,0.441,0.166,0.693,0.261c0.708,0.279,1.551,0.61,2.533,0.997
						c2.258,0.911,5.141,2.075,8.331,3.362c3.243,1.337,6.192,2.509,8.39,3.176c1.096,0.339,1.995,0.574,2.62,0.723
						c0.262,0.062,0.498,0.118,0.72,0.171C443.921,389.735,444.007,389.76,444.005,389.767z"/>
				</g>
			</g>
			<g style="opacity:0.3;">
				<g>
					<path d="M409.974,355.402c1.148-0.099,2.551-0.788,3.385-1.583c0.875-0.836,1.381-1.999,1.625-3.185
						c0.244-1.186,0.246-2.406,0.247-3.616c-1.135,1.078-2.27,2.156-3.404,3.234c-0.723,0.687-1.447,1.375-2.105,2.124
						c-0.339,0.386-0.667,0.801-0.82,1.292c-0.153,0.491-0.098,1.076,0.257,1.447c0.356,0.371,1.043,0.414,1.359,0.009"/>
				</g>
			</g>
			<g style="opacity:0.3;">
				<g>
					<path d="M432.316,375.729c0.067-2.072,0.951-4.106,2.42-5.568c1.469-1.462,3.508-2.336,5.58-2.392
						c-1.629,3.381-5.699,4.833-8.003,7.796"/>
				</g>
			</g>
		</g>
	</g>
</g>
<g id="Character">
	<g>
		<path style="fill:#263238;" d="M351.655,262.127c-0.431,0.224-0.863,0.448-1.294,0.673c-0.712,16.777-1.425,33.554-2.137,50.33
			c-0.393,9.251-0.758,18.677,2.69,27.753l55.363,14.746c2.265-3.802,3.538-8.065,3.907-12.298
			c2.223-25.464,2.12-39.234,1.673-55.904c-0.156-5.838,0.363-19.381-5.036-23.006c-9.071-6.09-17.457-4.04-26.628-6.062
			c-9.171-2.022-18.596,2.895-28.014,2.794"/>
	</g>
	<g>
		<g>
			<g>
				<path style="fill:#B78876;" d="M324.985,321.312l-16.321-25.842c-0.68,0-48.148,9.521-48.148,9.521s-33.051,2.856-33.867,3.4
					c-0.816,0.544-10.881,19.178-10.881,19.178c6.665,1.088,9.385-7.481,9.385-7.481l6.665-3.808l8.161,0.952
					c-2.327,1.063-4.293,2.114-4.896,2.856c-1.768,2.176-2.72,6.392-1.632,6.528c1.088,0.136,3.075-2.992,8.202-3.672
					c5.127-0.68,18.137-3.401,18.137-3.401l0,0l4.672,0.545L324.985,321.312z"/>
			</g>
			<g>
				<g>
					<path style="fill:#A36957;" d="M248.15,313.896c0.044,0.143-2.08,0.904-4.628,2c-2.552,1.089-4.567,2.102-4.64,1.971
						c-0.069-0.119,1.853-1.348,4.435-2.45C245.896,314.309,248.112,313.764,248.15,313.896z"/>
				</g>
			</g>
		</g>
		<g>
			<path style="fill:#263238;" d="M284.143,164.199c1.599,18.35,2.974,37.89-5.676,54.153c1.916-0.388,3.668-1.53,4.795-3.127
				c-0.714,6.08-1.426,12.257-0.427,18.297c0.999,6.04,3.958,12.033,9.132,15.307c0.075-0.758,0.15-1.516,0.225-2.274
				c1.989,12.944,13.377,23.846,26.396,25.268c5.625,0.615,12.078-0.83,15.063-5.638c2.269-3.656,1.983-8.283,1.622-12.57
				c-2.35-27.863-4.699-55.726-7.049-83.589c-0.655-7.773-1.45-15.947-5.909-22.348c-5.021-7.208-14.575-10.935-23.151-9.03
				c-8.576,1.905-15.653,9.326-17.15,17.982"/>
		</g>
		<g>
			<g>
				<path style="fill:#E8505B;" d="M321.572,217.931c0,0-13.536,7.834-17.663,14.335c-4.126,6.501-2.588,24.734-2.588,24.734
					s-2.814,10.122-2.842,19.481c-0.032,10.533,8.15,18.247,10.233,23.903c2.084,5.656,0.651,31.455,0.651,31.455l77.039,1.884
					v-53.065l10.237,0.931c0,0,3.331-51.797-12.147-58.346c-15.479-6.549-34.107-13.05-34.107-13.05L321.572,217.931z"/>
			</g>
			<g>
				<g>
					<path style="fill:#FAFAFA;" d="M397.019,266.393c0,0-0.161,0.329-0.608,0.858c-0.44,0.529-1.19,1.253-2.348,1.891
						c-1.149,0.644-2.716,1.162-4.585,1.316c-1.871,0.168-4.029-0.155-6.25-0.921c-2.23-0.759-4.514-1.961-6.908-3.298
						c-2.396-1.324-4.944-2.797-7.852-3.74c-2.894-0.981-6.183-1.055-9.417-0.316c-3.24,0.763-6.421,2.176-9.661,3.636
						c-3.242,1.46-6.459,2.879-9.776,3.629c-3.303,0.744-6.733,0.605-9.672-0.468c-2.954-1.036-5.47-2.624-7.783-4.09
						c-2.31-1.481-4.458-2.857-6.557-3.846c-2.092-0.994-4.121-1.604-5.951-1.766c-1.827-0.173-3.426,0.011-4.665,0.371
						c-2.505,0.732-3.518,1.905-3.562,1.818c0,0,0.24-0.276,0.799-0.683c0.554-0.408,1.445-0.939,2.706-1.329
						c1.254-0.397,2.882-0.615,4.748-0.467c1.87,0.138,3.952,0.737,6.081,1.723c2.137,0.981,4.315,2.352,6.632,3.814
						c2.318,1.449,4.82,3.003,7.709,4.001c1.439,0.503,2.975,0.828,4.567,0.867c0.792,0.104,1.597-0.038,2.407-0.053
						c0.806-0.089,1.619-0.232,2.431-0.391c3.246-0.74,6.431-2.146,9.672-3.606c3.241-1.459,6.452-2.885,9.762-3.658
						c3.299-0.752,6.721-0.663,9.678,0.357c2.971,0.978,5.529,2.48,7.916,3.819c2.382,1.352,4.632,2.559,6.818,3.327
						c2.18,0.775,4.278,1.114,6.108,0.978c1.83-0.123,3.371-0.601,4.51-1.204c1.148-0.597,1.906-1.282,2.365-1.782
						C396.798,266.682,396.993,266.375,397.019,266.393z"/>
				</g>
			</g>
			<g>
				<g>
					<path style="fill:#FAFAFA;" d="M394.539,247.092c0.006,0.007-0.057,0.066-0.186,0.174c-0.132,0.104-0.318,0.277-0.59,0.463
						c-0.543,0.371-1.402,0.865-2.615,1.212c-2.408,0.735-6.249,0.621-10.395-1.142c-2.071-0.865-4.21-2.067-6.53-3.269
						c-2.318-1.19-4.865-2.396-7.743-2.886c-2.87-0.523-5.98-0.373-9.103,0.223c-3.132,0.592-6.288,1.615-9.473,2.784
						c-3.19,1.166-6.295,2.373-9.392,3.27c-3.09,0.9-6.185,1.485-9.164,1.494c-5.986,0.046-11.152-1.885-15.12-3.877
						c-3.997-2.021-6.949-4.137-8.958-5.61c-0.994-0.754-1.762-1.344-2.268-1.764c-0.233-0.193-0.422-0.35-0.575-0.477
						c-0.128-0.11-0.19-0.169-0.185-0.176c0.006-0.007,0.079,0.039,0.218,0.134c0.161,0.116,0.361,0.259,0.607,0.435
						c0.565,0.409,1.341,0.971,2.323,1.683c2.04,1.419,5.016,3.48,9.003,5.444c3.96,1.937,9.076,3.8,14.951,3.727
						c2.923-0.021,5.967-0.606,9.027-1.504c3.066-0.895,6.159-2.1,9.357-3.269c3.195-1.172,6.38-2.203,9.557-2.796
						c3.168-0.598,6.343-0.743,9.282-0.194c2.954,0.517,5.539,1.764,7.858,2.975c2.323,1.225,4.439,2.438,6.476,3.314
						c4.063,1.777,7.823,1.945,10.197,1.285C393.501,248.099,394.496,247.006,394.539,247.092z"/>
				</g>
			</g>
			<g>
				<g>
					<path style="fill:#FAFAFA;" d="M359.976,297.228c0.007,0.017-0.177,0.112-0.533,0.278c-0.356,0.166-0.885,0.403-1.573,0.694
						c-1.378,0.569-3.381,1.415-5.996,2.042c-2.582,0.623-5.947,0.938-9.35-0.293c-3.408-1.178-6.545-3.596-9.921-5.811
						c-3.355-2.281-7.005-3.661-10.463-4.204c-1.728-0.262-3.392-0.341-4.947-0.309c-1.553,0.075-2.999,0.224-4.295,0.498
						c-2.603,0.504-4.614,1.313-5.953,1.945c-1.347,0.626-2.049,1.065-2.078,1.016c-0.009-0.015,0.16-0.132,0.493-0.342
						c0.336-0.204,0.819-0.533,1.495-0.856c1.323-0.693,3.336-1.565,5.968-2.124c1.31-0.3,2.776-0.474,4.354-0.569
						c1.58-0.052,3.274,0.012,5.037,0.267c3.517,0.521,7.285,1.934,10.673,4.241c3.404,2.238,6.496,4.629,9.797,5.795
						c3.285,1.216,6.546,0.955,9.109,0.386c2.588-0.572,4.605-1.36,6.002-1.871c0.655-0.246,1.187-0.445,1.608-0.603
						C359.772,297.275,359.969,297.212,359.976,297.228z"/>
				</g>
			</g>
			<g>
				<g>
					<path style="fill:#FAFAFA;" d="M359.83,316.181c-0.013,0.051-0.713-0.145-2.004-0.33c-1.289-0.189-3.179-0.316-5.501-0.139
						c-2.322,0.179-5.058,0.691-8.035,1.502c-2.98,0.802-6.204,1.9-9.664,2.841c-3.458,0.934-6.86,1.565-9.996,1.533
						c-3.13-0.027-5.928-0.672-8.098-1.615c-2.174-0.949-3.711-2.152-4.622-3.103c-0.452-0.482-0.785-0.869-0.979-1.159
						c-0.204-0.28-0.304-0.431-0.29-0.442c0.048-0.038,0.464,0.563,1.41,1.456c0.94,0.893,2.478,2.022,4.623,2.909
						c2.142,0.879,4.889,1.474,7.957,1.474c3.07,0.007,6.424-0.628,9.858-1.555c3.437-0.935,6.668-2.02,9.676-2.802
						c3.004-0.792,5.78-1.272,8.134-1.406c2.355-0.133,4.268,0.053,5.559,0.306c0.646,0.13,1.143,0.247,1.472,0.355
						C359.664,316.104,359.835,316.164,359.83,316.181z"/>
				</g>
			</g>
			<g>
				<g>
					<path style="fill:#263238;" d="M359.735,292.674c-0.144,0-0.26-7.251-0.26-16.193c0-8.945,0.117-16.194,0.26-16.194
						s0.26,7.249,0.26,16.194C359.995,285.424,359.879,292.674,359.735,292.674z"/>
				</g>
			</g>
			<g>
				<g>
					<path style="fill:#263238;" d="M352.464,302.468c0.001,0.018-0.142,0.038-0.417,0.06c-0.274,0.014-0.681,0.064-1.204,0.053
						c-1.047,0.017-2.569-0.074-4.415-0.426c-3.664-0.671-8.715-2.697-12.775-6.836c-4.054-4.147-5.973-9.24-6.566-12.918
						c-0.313-1.853-0.372-3.377-0.333-4.423c0-0.523,0.059-0.928,0.078-1.203c0.028-0.274,0.051-0.417,0.069-0.416
						c0.122-0.003-0.161,2.329,0.548,5.974c0.677,3.608,2.614,8.567,6.576,12.621c3.968,4.045,8.884,6.087,12.477,6.84
						C350.132,302.58,352.469,302.346,352.464,302.468z"/>
				</g>
			</g>
			<g style="opacity:0.3;">
				<g>
					<path d="M311.808,327.061c11.192-6.662,26.193-5.527,36.267-13.783c4.741-3.885,7.828-9.492,9.672-15.337
						c1.845-5.846,2.543-11.982,3.233-18.073c0.639,11.306,1.277,22.612,1.916,33.919c0.131,2.316,0.181,4.885-1.324,6.649
						c-1.274,1.493-3.33,2-5.245,2.426c-8.177,1.819-16.355,3.637-24.532,5.456c-6.638,1.476-13.738,2.925-20.086,0.486"/>
				</g>
			</g>
			<g style="opacity:0.2;">
				<g>
					<path d="M343.823,242.763c-2.111,2.598-4.258,5.261-5.408,8.405c-1.15,3.144-1.139,6.915,0.871,9.592
						c2.193,2.92,6.309,3.882,9.89,3.166c3.581-0.715,6.72-2.826,9.569-5.109c1.416-1.135,2.966-2.391,4.78-2.35
						c1.078,0.025,2.088,0.516,3.15,0.704c2.943,0.52,5.862-1.398,7.544-3.869c1.682-2.471,2.428-5.437,3.385-8.269
						c0.957-2.832,2.251-5.717,4.648-7.503c2.225-1.658,5.335-2.334,6.721-4.738c1.737-3.014-0.537-7.062-3.719-8.468
						c-3.182-1.406-6.84-0.937-10.284-0.441"/>
				</g>
			</g>
			<g style="opacity:0.2;">
				<g>
					<path d="M349.14,302.08c0.185,0.287-0.049,0.892-0.85,1.593c-0.792,0.698-2.185,1.44-4.069,1.789
						c-1.874,0.339-4.219,0.256-6.643-0.594c-2.435-0.845-4.771-2.456-6.689-4.539c-1.911-2.087-3.246-4.402-4.146-6.556
						c-0.904-2.155-1.417-4.146-1.731-5.816c-0.595-3.345-0.475-5.456,0.2-5.66c0.7-0.212,1.853,1.603,3.293,4.495
						c1.47,2.867,3.252,6.79,6.215,10.01c1.472,1.595,3.089,2.841,4.679,3.626c1.598,0.797,3.223,1.197,4.617,1.357
						C346.818,302.114,348.725,301.442,349.14,302.08z"/>
				</g>
			</g>
			<g>
				<g>
					<path style="fill:#263238;" d="M396.64,281.588c-0.013,0.143-8.286-0.492-18.475-1.418c-10.193-0.927-18.443-1.794-18.43-1.937
						c0.013-0.143,8.284,0.492,18.477,1.418C388.401,280.578,396.653,281.445,396.64,281.588z"/>
				</g>
			</g>
		</g>
		<g>
			<g>
				<path style="fill:#263238;" d="M335.518,136.722c4.554,3.964,8.073,7.139,12.895,10.179c4.822,3.04,9.809,6.671,11.596,12.084
					c1.3,3.936,0.822,8.6,3.43,11.821c2.228,2.753,6.009,3.559,9.134,5.227c5.494,2.932,9.129,9.055,9.071,15.282
					c-0.037,3.978-1.398,8.247,0.481,11.754c1.642,3.063,5.315,4.558,7.138,7.517c1.737,2.819,1.474,6.404,0.904,9.665
					c-0.871,4.986-2.719,10.382-7.181,12.773c-3.027,1.622-6.777,1.499-9.985,0.274c-3.208-1.225-5.942-3.448-8.352-5.894
					c-4.639-4.707-8.294-10.378-10.666-16.547c-2.839-7.384-3.816-15.325-5.187-23.116c-2.512-14.277-6.418-28.308-11.644-41.829
					C335.875,142.612,333.59,139.691,335.518,136.722"/>
			</g>
			<g>
				<g>
					<path style="fill:#263238;" d="M373.19,199.335c-0.01-0.018,0.267-0.186,0.787-0.512c0.518-0.329,1.275-0.829,2.18-1.56
						c0.903-0.729,1.951-1.708,2.93-3.03c0.959-1.319,1.858-3.033,2.118-5.07c0.232-2.016-0.184-4.387-1.596-6.336
						c-0.706-0.955-1.653-1.817-2.836-2.273c-1.165-0.501-2.516-0.554-3.891-0.655c-1.365-0.098-2.883-0.233-4.182-1.066
						c-1.301-0.811-2.166-2.206-2.601-3.678c-0.444-1.483-0.547-3.067-0.405-4.64c0.145-1.566,0.46-3.117,0.673-4.685
						c0.214-1.565,0.309-3.131,0.022-4.62c-0.285-1.486-0.944-2.864-1.795-4.064c-1.716-2.424-4.136-4.104-6.534-5.412
						c-2.413-1.314-4.84-2.337-7.022-3.492c-2.189-1.137-4.153-2.333-5.899-3.492c-3.489-2.328-6.072-4.544-7.786-6.136
						c-0.858-0.797-1.5-1.44-1.927-1.885c-0.193-0.206-0.35-0.374-0.479-0.512c-0.106-0.117-0.157-0.18-0.15-0.187
						c0.006-0.006,0.07,0.044,0.188,0.149c0.139,0.128,0.308,0.284,0.515,0.474c0.449,0.42,1.113,1.038,1.989,1.809
						c1.75,1.541,4.357,3.703,7.852,5.979c1.749,1.132,3.712,2.303,5.895,3.416c2.172,1.129,4.602,2.135,7.053,3.454
						c2.433,1.313,4.931,3.024,6.72,5.537c0.888,1.246,1.585,2.69,1.888,4.262c0.305,1.573,0.202,3.2-0.015,4.787
						c-0.216,1.591-0.53,3.135-0.673,4.663c-0.139,1.516-0.039,3.043,0.378,4.444c0.411,1.395,1.207,2.669,2.38,3.405
						c1.165,0.758,2.589,0.906,3.951,1.008c1.364,0.109,2.769,0.164,4.029,0.71c1.27,0.501,2.275,1.43,3.012,2.444
						c1.472,2.07,1.876,4.535,1.612,6.634c-0.297,2.125-1.247,3.865-2.25,5.198c-1.022,1.334-2.106,2.303-3.037,3.015
						c-0.934,0.713-1.714,1.189-2.252,1.491c-0.267,0.154-0.48,0.256-0.62,0.328C373.269,199.31,373.194,199.342,373.19,199.335z"/>
				</g>
			</g>
			<g>
				<g>
					<path style="fill:#E8505B;" d="M277.713,192.35l17.376-10.508c0.713-0.431,1.639-0.203,2.07,0.51l0,0
						c0.431,0.712,0.202,1.639-0.51,2.07l-17.376,10.508L277.713,192.35z"/>
				</g>
				<g style="opacity:0.4;">
					<path d="M296.65,184.422l-1.56-2.58l0,0c0.713-0.431,1.639-0.203,2.07,0.51l0,0C297.59,183.064,297.362,183.991,296.65,184.422
						L296.65,184.422z"/>
				</g>
				<g style="opacity:0.4;">
					
						<rect x="277.102" y="188.064" transform="matrix(-0.8557 0.5175 -0.5175 -0.8557 630.5823 201.1293)" width="20.293" height="0.84"/>
				</g>
				<g>
					<polygon style="fill:#E8505B;" points="279.273,194.93 274.843,195.848 277.713,192.35 					"/>
				</g>
				<g style="opacity:0.5;">
					<polygon style="fill:#FFFFFF;" points="279.273,194.93 274.843,195.848 277.713,192.35 					"/>
				</g>
				<g>
					<polygon style="fill:#263238;" points="276.284,195.549 275.776,194.71 274.843,195.848 					"/>
				</g>
			</g>
			<g>
				<g>
					<g>
						<g>
							<g>
								<g>
									<g>
										<g>
											<g>
												<g>
													<path style="fill:#B78876;" d="M305.197,143.029c-12.455,4.106-19.475,17.267-15.973,29.906
														c2.713,9.792,5.837,20.392,8.221,26.531c5.546,14.283,17.29,13.714,17.29,13.714s2.192,9.222,4.122,18.016
														c1.838,8.378,10.627,13.747,19.64,11.997h0c8.924-1.734,14.739-9.808,13.057-18.129l-14.728-64.201
														C333.591,146.764,318.935,138.5,305.197,143.029L305.197,143.029z"/>
												</g>
											</g>
										</g>
										<g>
											<g>
												<g>
													<g>
														<path style="fill:#263238;" d="M294.904,177.82c0.181,1.009,1.185,1.688,2.243,1.518
															c1.055-0.17,1.767-1.124,1.585-2.133c-0.181-1.009-1.185-1.69-2.241-1.52
															C295.434,175.855,294.723,176.811,294.904,177.82z"/>
													</g>
												</g>
											</g>
											<g>
												<g>
													<g>
														<g>
															<path style="fill:#263238;" d="M293.599,175.514c0.289,0.196,1.496-1.177,3.538-1.613
																c2.034-0.465,3.759,0.261,3.926-0.037c0.085-0.134-0.251-0.528-1.006-0.863c-0.744-0.334-1.939-0.557-3.209-0.277
																c-1.27,0.282-2.238,0.981-2.749,1.593C293.576,174.935,293.46,175.428,293.599,175.514z"/>
														</g>
													</g>
												</g>
											</g>
										</g>
										<g>
											<g>
												<g>
													<g>
														<path style="fill:#263238;" d="M315.797,174.092c0.181,1.009,1.185,1.688,2.243,1.519
															c1.056-0.17,1.767-1.124,1.586-2.133c-0.181-1.009-1.186-1.689-2.241-1.52
															C316.326,172.127,315.616,173.083,315.797,174.092z"/>
													</g>
												</g>
											</g>
											<g>
												<g>
													<g>
														<g>
															<path style="fill:#263238;" d="M315.058,171.651c0.289,0.197,1.498-1.178,3.539-1.613
																c2.034-0.465,3.759,0.262,3.926-0.036c0.084-0.134-0.249-0.529-1.007-0.863c-0.744-0.334-1.939-0.557-3.209-0.277
																c-1.27,0.282-2.238,0.981-2.75,1.593C315.036,171.071,314.919,171.565,315.058,171.651z"/>
														</g>
													</g>
												</g>
											</g>
										</g>
										<g>
											<g>
												<g>
													<g>
														<path style="fill:#263238;" d="M310.923,188.39c-0.016-0.118-1.332-0.063-3.445,0.119
															c-0.533,0.059-1.048,0.062-1.213-0.275c-0.204-0.35-0.107-0.959,0.014-1.62c0.217-1.367,0.445-2.8,0.684-4.302
															c0.919-6.114,1.464-11.095,1.217-11.13c-0.246-0.035-1.191,4.892-2.11,11.006c-0.214,1.505-0.42,2.94-0.613,4.312
															c-0.069,0.635-0.263,1.38,0.172,2.104c0.224,0.359,0.668,0.559,1.022,0.577c0.356,0.029,0.651-0.028,0.912-0.068
															C309.654,188.775,310.94,188.507,310.923,188.39z"/>
													</g>
												</g>
											</g>
										</g>
										<g>
											<g>
												<g>
													<path style="fill:#A36957;" d="M314.735,212.849c0,0,10.089-1.51,18.665-9.566c0,0-2.609,11.199-17.711,13.015
														L314.735,212.849z"/>
												</g>
											</g>
										</g>
									</g>
								</g>
							</g>
						</g>
					</g>
					<g>
						<g>
							<path style="fill:#263238;" d="M320.126,164.218c-0.144,0.421-1.771,0.219-3.708,0.331c-1.939,0.083-3.537,0.446-3.723,0.042
								c-0.196-0.37,1.364-1.494,3.645-1.603C318.619,162.868,320.284,163.831,320.126,164.218z"/>
						</g>
					</g>
					<g>
						<g>
							<path style="fill:#263238;" d="M299.232,166.15c0.015,0.441-1.65,0.842-3.615,1.426c-1.971,0.567-3.589,1.128-3.814,0.748
								c-0.223-0.357,1.191-1.613,3.375-2.247C297.359,165.433,299.228,165.729,299.232,166.15z"/>
						</g>
					</g>
				</g>
				<g>
					<path style="fill:#263238;" d="M375.551,219.588c0,0-8.039-8.817-7.387-18.934c0.653-10.116-2.515-16.682-8.173-19.011
						c-3.969-1.634-5.549-5.725-6.164-9.131c-1.031-5.718-2.586-11.335-5.027-16.607c-3.522-7.605-8.208-15.431-14.738-20.355
						c-8.49-6.402-21.822-10.684-30.023-3.916c-3.804,3.14-6.05,3.637-9.448,8.984c0,0-4.095,1.432-6.199,2.389
						c-7.266,3.307-9.922,12.785-9.153,18.97c1.78,14.315,10.451,16.124,13.839,25.251c0,0-4.068-19.864-3.748-25.337
						c0.372-6.351,5.083-10.658,5.083-10.658c5.759-1.043,8.81,1.69,12.122,6.515c3.313,4.825,5.47,8.784,10.893,10.985
						c5.108,2.073,9.667,6.698,16.587,1.801c0,0,3.637,3.856,4.127,8.829c0.49,4.973-4.406,7.747-0.816,15.416
						c3.59,7.669,10.309,12.87,11.009,15.922"/>
				</g>
				<g>
					<g>
						<g>
							<g>
								<path style="fill:#E8505B;" d="M314.678,192.515c0.449-0.93,1.431-1.588,2.517-1.686c0.754-0.068,1.569,0.138,2.138,0.649
									c0.568,0.511,0.833,1.344,0.54,1.998c-0.329,0.737-1.258,1.077-2.115,1.009c-0.857-0.068-1.662-0.462-2.431-0.862
									c-0.213-0.111-0.431-0.227-0.586-0.405c-0.155-0.179-0.232-0.438-0.124-0.633"/>
							</g>
						</g>
					</g>
					<g>
						<g>
							<g>
								<g>
									<path style="fill:#263238;" d="M318.376,188.738c-0.279,0.039,0.086,1.884-1.231,3.509
										c-1.313,1.629-3.321,1.815-3.284,2.076c-0.003,0.121,0.51,0.271,1.344,0.127c0.82-0.135,1.956-0.634,2.762-1.628
										c0.802-0.996,1.002-2.15,0.914-2.919C318.797,189.118,318.5,188.702,318.376,188.738z"/>
								</g>
							</g>
						</g>
					</g>
				</g>
				<g>
					<path style="fill:#263238;" d="M337.331,194.332c3.937,3.892,5.528,9.993,3.994,15.313c-1.011,3.503-3.248,6.628-3.759,10.238
						c-0.623,4.399,1.401,8.679,3.098,12.785c1.697,4.106,3.101,8.821,1.31,12.887c-0.749,1.7-2.006,3.136-2.775,4.827
						c-0.769,1.691-0.933,3.897,0.363,5.228c0.902,0.926,2.273,1.192,3.56,1.307c9.596,0.851,19.433-4.852,23.464-13.602
						c0.65,1.448,1.3,2.897,1.95,4.345c4.316-6.509,6.326-14.514,5.597-22.289c-0.729-7.776-4.193-15.267-9.643-20.86"/>
				</g>
				<g>
					<g>
						<g>
							<g>
								<path style="fill:#B78876;" d="M331.42,173.618c-0.218-0.979,1.786-3.453,2.758-3.705c2.244-0.582,6.145-0.535,7.925,5.619
									c2.543,8.791-6.533,8.538-6.621,8.291C335.412,183.629,332.192,177.084,331.42,173.618z"/>
							</g>
						</g>
					</g>
					<g>
						<g>
							<g>
								<g>
									<path style="fill:#A36957;" d="M336.639,179.872c0.03-0.039,0.184,0.063,0.477,0.107c0.286,0.042,0.743-0.003,1.152-0.307
										c0.83-0.61,1.186-2.31,0.77-3.907c-0.209-0.807-0.597-1.52-1.063-2.069c-0.454-0.565-1-0.894-1.492-0.842
										c-0.496,0.027-0.747,0.403-0.782,0.681c-0.047,0.28,0.06,0.439,0.017,0.468c-0.018,0.029-0.231-0.092-0.266-0.476
										c-0.014-0.185,0.029-0.422,0.187-0.651c0.161-0.233,0.446-0.41,0.782-0.469c0.691-0.149,1.482,0.298,1.994,0.9
										c0.55,0.595,1.005,1.391,1.24,2.297c0.456,1.788,0.029,3.708-1.136,4.443c-0.572,0.34-1.142,0.303-1.468,0.172
										C336.716,180.08,336.613,179.897,336.639,179.872z"/>
								</g>
							</g>
						</g>
					</g>
				</g>
			</g>
			<g>
				<g>
					<path style="fill:#455A64;" d="M378.715,198.761c-0.101-0.035-0.016-0.421,0.01-1.131c0.024-0.706-0.061-1.758-0.567-2.979
						c-0.498-1.213-1.434-2.601-2.89-3.749c-1.482-1.162-3.466-2.079-5.799-2.896c-2.316-0.842-5.046-1.592-7.762-3.203
						c-1.341-0.811-2.688-1.88-3.715-3.309c-1.047-1.41-1.731-3.033-2.288-4.642c-0.565-1.615-1.022-3.238-1.635-4.76
						c-0.618-1.51-1.406-2.907-2.572-3.911c-2.33-2.071-6.018-2.521-9.63-2.236c-3.656,0.294-7.438,1.199-11.326,0.885
						c-1.935-0.146-3.868-0.676-5.547-1.51c-1.69-0.827-3.16-1.902-4.467-3.041c-2.61-2.295-4.581-4.859-6.441-7.117
						c-1.855-2.268-3.627-4.288-5.501-5.801c-3.685-3.127-7.824-3.759-10.428-3.342c-1.322,0.192-2.303,0.602-2.939,0.929
						c-0.641,0.323-0.982,0.526-1.048,0.449c-0.052-0.057,0.174-0.397,0.763-0.889c0.582-0.495,1.584-1.107,3.018-1.481
						c1.429-0.374,3.277-0.49,5.343-0.088c2.053,0.394,4.336,1.392,6.42,2.968c2.116,1.552,4.069,3.625,6.02,5.86
						c1.957,2.234,3.926,4.645,6.358,6.694c2.417,2.051,5.313,3.649,8.648,3.827c3.36,0.257,6.966-0.598,10.931-0.939
						c1.99-0.155,4.013-0.111,6.005,0.291c1.983,0.389,3.96,1.243,5.512,2.631c1.573,1.388,2.527,3.206,3.192,4.903
						c0.658,1.714,1.092,3.38,1.596,4.907c0.495,1.532,1.068,2.935,1.875,4.076c0.781,1.154,1.846,2.063,2.999,2.814
						c2.333,1.495,4.929,2.345,7.28,3.316c2.357,0.951,4.5,2.076,6.075,3.5c1.59,1.445,2.5,3.1,2.912,4.532
						c0.418,1.44,0.331,2.643,0.129,3.387C379.039,198.458,378.781,198.787,378.715,198.761z"/>
				</g>
			</g>
			<g>
				<path style="fill:#263238;" d="M326.331,132.615c-1.823-1.78-2.989-4.275-2.954-6.823c0.034-2.548,1.344-5.094,3.517-6.423
					c1.461-0.893,3.237-1.214,4.938-1.027c3.832,0.421,7.2,3.58,7.866,7.377c0.666,3.798-1.426,7.913-4.887,9.613
					c-3.46,1.7-7.996,0.841-10.595-2.007"/>
			</g>
			<g>
				<g>
					<path style="fill:#E8505B;" d="M335.068,135.046c0.005,0.059-0.696,0.192-1.843,0.128c-1.142-0.06-2.727-0.377-4.32-1.125
						c-1.592-0.754-2.844-1.775-3.617-2.619c-0.778-0.844-1.121-1.47-1.073-1.504c0.121-0.119,1.804,2.216,4.912,3.651
						C332.21,135.063,335.083,134.877,335.068,135.046z"/>
				</g>
			</g>
			<g>
				<g>
					<path style="fill:#455A64;" d="M288.595,181.903c-0.04-0.007,0.003-0.582,0.061-1.607c-0.028-1.029-0.111-2.522-0.609-4.3
						c-0.485-1.778-1.318-3.816-2.312-6.059c-0.964-2.25-2.125-4.725-2.747-7.536c-0.331-1.4-0.415-2.818-0.362-4.178
						c0.087-1.365,0.435-2.656,0.931-3.803c0.994-2.309,2.561-4.022,4.055-5.154c1.515-1.127,2.956-1.696,3.963-1.965
						c0.503-0.148,0.906-0.206,1.18-0.239c0.273-0.036,0.416-0.047,0.419-0.029c0.011,0.059-0.565,0.128-1.539,0.462
						c-0.972,0.324-2.353,0.931-3.797,2.063c-1.423,1.137-2.908,2.821-3.839,5.051c-0.465,1.108-0.788,2.344-0.863,3.648
						c-0.042,1.307,0.038,2.671,0.362,4.034c0.603,2.734,1.738,5.196,2.679,7.457c0.97,2.254,1.781,4.334,2.228,6.156
						c0.461,1.823,0.49,3.358,0.455,4.4c-0.05,0.521-0.125,0.922-0.167,1.193C288.645,181.767,288.613,181.906,288.595,181.903z"/>
				</g>
			</g>
			<g>
				<g>
					<path style="fill:#455A64;" d="M297.817,253.325c-0.01,0.015-0.212-0.103-0.589-0.343c-0.388-0.226-0.918-0.618-1.583-1.15
						c-1.317-1.072-3.045-2.888-4.588-5.525c-1.531-2.635-2.825-6.094-3.418-10.085c-0.604-3.993-0.445-8.457,0.165-13.044
						c0.621-4.594,1.564-8.9,2.302-12.828c0.75-3.926,1.279-7.486,1.496-10.496c0.216-3.01,0.148-5.456,0.006-7.138
						c-0.139-1.683-0.303-2.605-0.252-2.614c0.018-0.003,0.071,0.225,0.156,0.663c0.094,0.437,0.192,1.088,0.298,1.931
						c0.206,1.684,0.331,4.148,0.16,7.182c-0.171,3.033-0.666,6.62-1.392,10.559c-0.714,3.942-1.64,8.244-2.258,12.809
						c-0.607,4.557-0.776,8.97-0.206,12.906c0.558,3.936,1.796,7.354,3.263,9.972c1.479,2.619,3.138,4.445,4.401,5.554
						C297.04,252.794,297.854,253.27,297.817,253.325z"/>
				</g>
			</g>
			<g>
				<g>
					<path style="fill:#455A64;" d="M342.408,251.236c-0.005-0.007,0.057-0.067,0.184-0.177c0.152-0.127,0.34-0.284,0.572-0.478
						c0.505-0.417,1.244-1.037,2.177-1.856c1.838-1.659,4.491-4.127,7.074-7.731c2.561-3.57,5.028-8.451,5.493-14.3
						c0.25-2.896-0.023-6.007-1.078-8.989c-1.003-3.013-3.047-5.66-4.732-8.629c-0.84-1.486-1.557-3.055-1.929-4.703
						c-0.382-1.643-0.45-3.309-0.39-4.92c0.131-3.228,0.713-6.272,0.767-9.193c0.077-2.918-0.228-5.704-0.916-8.204
						c-0.684-2.5-1.76-4.705-3.066-6.472c-2.647-3.559-6.011-5.289-8.365-5.926c-2.398-0.639-3.807-0.435-3.8-0.513
						c0-0.009,0.085-0.019,0.253-0.029c0.199-0.008,0.445-0.019,0.747-0.031c0.655,0.029,1.634,0.064,2.852,0.377
						c2.406,0.587,5.865,2.294,8.608,5.901c1.355,1.795,2.471,4.035,3.187,6.577c0.72,2.542,1.045,5.371,0.98,8.331
						c-0.043,2.969-0.617,6.027-0.737,9.2c-0.056,1.583,0.015,3.203,0.385,4.784c0.359,1.583,1.051,3.101,1.878,4.564
						c1.652,2.92,3.727,5.608,4.759,8.716c1.077,3.064,1.343,6.248,1.075,9.199c-0.501,5.959-3.049,10.899-5.672,14.475
						c-2.647,3.613-5.355,6.051-7.24,7.67c-0.957,0.799-1.719,1.395-2.245,1.786c-0.245,0.177-0.443,0.321-0.604,0.438
						C342.487,251.197,342.413,251.243,342.408,251.236z"/>
				</g>
			</g>
			<g>
				<g>
					<path style="fill:#E8505B;" d="M342.552,181.197c0.019-0.023,0.316,0.159,0.767,0.599c0.438,0.437,1.065,1.168,1.35,2.304
						c0.286,1.127,0,2.633-0.998,3.814c-0.96,1.173-2.64,2.071-4.451,1.822c-1.801-0.265-3.201-1.579-3.736-3.022
						c-0.274-0.724-0.329-1.491-0.199-2.166c0.133-0.676,0.416-1.259,0.752-1.727c0.682-0.941,1.546-1.405,2.151-1.579
						c0.615-0.177,0.972-0.13,0.971-0.107c0.005,0.048-0.343,0.072-0.903,0.298c-0.553,0.222-1.325,0.705-1.915,1.597
						c-0.591,0.87-0.943,2.211-0.408,3.511c0.495,1.279,1.78,2.452,3.361,2.679c1.587,0.224,3.12-0.563,4.011-1.616
						c0.925-1.058,1.218-2.397,1.004-3.427c-0.214-1.043-0.758-1.779-1.14-2.244C342.777,181.464,342.524,181.229,342.552,181.197z"
						/>
				</g>
			</g>
			<g>
				<g>
					<path style="fill:#455A64;" d="M337.607,140.026c0.018,0.004-0.007,0.16-0.07,0.457c-0.037,0.166-0.078,0.347-0.123,0.548
						c-0.075,0.221-0.158,0.463-0.247,0.726c-0.406,1.071-1.167,2.616-2.643,4.089c-1.433,1.486-3.596,2.908-6.308,3.485
						c-1.35,0.28-2.831,0.326-4.308,0.073c-1.481-0.244-2.959-0.736-4.401-1.368c-2.889-1.275-5.386-2.922-7.796-4.111
						c-2.396-1.216-4.721-1.965-6.741-2.097c-2.019-0.156-3.649,0.226-4.695,0.64c-1.047,0.432-1.555,0.824-1.584,0.78
						c-0.011-0.014,0.111-0.117,0.353-0.3c0.244-0.18,0.628-0.415,1.15-0.667c1.047-0.483,2.718-0.935,4.799-0.822
						c2.082,0.087,4.493,0.826,6.93,2.034c2.454,1.183,4.959,2.816,7.793,4.064c1.415,0.62,2.85,1.1,4.276,1.342
						c1.426,0.25,2.831,0.214,4.129-0.04c2.605-0.527,4.721-1.864,6.144-3.276c1.466-1.398,2.258-2.875,2.714-3.904
						c0.104-0.253,0.2-0.485,0.288-0.698c0.062-0.193,0.118-0.367,0.169-0.527C337.531,140.171,337.589,140.022,337.607,140.026z"/>
				</g>
			</g>
		</g>
		<g>
			<g>
				<g>
					<polygon style="fill:#263238;" points="317.896,358.282 255.141,388.614 140.088,357.236 196.568,326.381 					"/>
				</g>
				<g>
					<polygon style="fill:#455A64;" points="248.699,356.998 265.361,362.502 280.786,354.115 255.113,345.879 240.119,353.65 					
						"/>
				</g>
				<g>
					<path style="fill:#263238;" d="M125.445,272.516c0.523,2.092,14.643,84.72,14.643,84.72l115.053,31.378l-15.166-88.381
						L125.445,272.516z"/>
				</g>
				<g>
					<g>
						<path style="fill:#455A64;" d="M246.767,339.817c0.142-0.024,2.131,10.88,4.443,24.353c2.313,13.477,4.072,24.419,3.93,24.444
							c-0.142,0.024-2.131-10.878-4.443-24.355C248.385,350.786,246.625,339.842,246.767,339.817z"/>
					</g>
				</g>
			</g>
			<g>
				
					<ellipse transform="matrix(0.9325 -0.3612 0.3612 0.9325 -105.4563 88.5333)" style="fill:#455A64;" cx="184.114" cy="326.381" rx="6.041" ry="7.018"/>
			</g>
		</g>
		<g>
			<g>
				<g>
					<path style="fill:#B78876;" d="M303.909,346.047c0,0,67.367,5.771,78.523-2.308c11.156-8.079,11.156-62.322,11.156-62.322
						l-33.384-3.078l-0.47,37.701c-2.308,1.924-60.399,11.541-65.4,11.156c0,0-30.443,3.253-32.103,3.253
						c-1.66,0-12.677,12.526-12.677,13.13c0,0,0.151,1.66,1.207,2.264c0,0-1.358,1.66,0.151,3.32c0,0-0.453,2.113,1.207,2.566
						c1.66,0.453,1.811,1.207,3.773,0c1.962-1.207,11.621-8.753,11.621-8.753l7.244-0.604c0,0-17.657,10.111-16.148,12.375
						c1.509,2.264,4.98-0.302,8.904-2.415c3.924-2.113,10.413-5.886,11.62-6.188S303.909,346.047,303.909,346.047z"/>
				</g>
				<g>
					<g>
						<path style="fill:#A36957;" d="M272.043,336.551c0.005,0.098-1.402,0.085-3.562,0.651c-2.159,0.544-5.019,1.8-7.778,3.802
							c-2.762,2.002-4.956,4.212-6.543,5.799c-1.581,1.599-2.561,2.591-2.617,2.539c-0.026-0.024,0.184-0.304,0.588-0.788
							c0.404-0.484,1.002-1.172,1.762-2.005c1.524-1.656,3.694-3.93,6.505-5.968c2.81-2.039,5.769-3.275,7.996-3.737
							c1.112-0.241,2.031-0.332,2.665-0.345C271.693,336.485,272.043,336.52,272.043,336.551z"/>
					</g>
				</g>
				<g>
					<g>
						<path style="fill:#A36957;" d="M268.212,334.081c0.004,0.095-1.215,0.081-3.077,0.586c-1.861,0.485-4.318,1.609-6.658,3.398
							c-2.342,1.79-4.177,3.765-5.506,5.181c-1.323,1.427-2.147,2.311-2.204,2.261c-0.051-0.044,0.671-1.011,1.929-2.506
							c1.264-1.483,3.074-3.522,5.466-5.351c2.392-1.83,4.953-2.936,6.885-3.341c0.965-0.211,1.762-0.286,2.312-0.291
							C267.909,334.012,268.212,334.049,268.212,334.081z"/>
					</g>
				</g>
			</g>
			<g>
				<g>
					<path style="fill:#AA6550;" d="M370.323,327.49c-0.088,0.021-0.312-0.887-0.915-2.249c-0.597-1.361-1.648-3.151-3.209-4.795
						c-1.569-1.638-3.308-2.772-4.639-3.432c-1.332-0.666-2.228-0.932-2.203-1.02c0.011-0.051,0.951,0.09,2.359,0.686
						c1.404,0.589,3.24,1.714,4.86,3.406c1.614,1.698,2.651,3.585,3.173,5.015C370.278,326.536,370.375,327.482,370.323,327.49z"/>
				</g>
			</g>
		</g>
	</g>
</g>
<g id="Coffee">
	<g>
		<g>
			<path style="fill:#E0E0E0;" d="M254.556,398.275c-2.93,0.71-4.241,4.492-3.253,7.341c0.988,2.849,3.563,4.837,6.191,6.315
				c7.908,4.447,18.408,5.499,25.76,0.183c3.218-2.326,5.739-6.442,4.409-10.183c-1.164-3.275-4.752-4.968-8.107-5.878
				c-8.945-2.427-18.72-1.664-27.18,2.121"/>
		</g>
		<g>
			<g>
				<path style="fill:#455A64;" d="M250.247,374.606c0,0-5.42,36.042,19.766,34.889c23.592-1.08,15.326-36.169,15.326-36.169
					L250.247,374.606z"/>
			</g>
			<g>
				<g>
					<path style="fill:#455A64;" d="M281.379,399.502c3.938,2.624,9.195,3.181,13.564,1.362c4.369-1.819,7.695-5.986,8.42-10.662
						s-1.216-9.693-4.949-12.601c-3.733-2.908-9.122-3.551-13.401-1.53l-0.368,4.105c2.67-1.261,6.033-0.86,8.362,0.955
						c2.33,1.815,3.54,4.945,3.088,7.863c-0.452,2.918-2.528,5.519-5.254,6.653c-2.726,1.135-6.007,0.788-8.465-0.85
						L281.379,399.502z"/>
				</g>
			</g>
			<g>
				<path style="fill:#E8505B;" d="M285.34,373.325c0.103,2.233-7.68,4.408-17.385,4.856c-9.705,0.449-17.656-0.998-17.759-3.231
					c-0.103-2.233,7.68-4.408,17.385-4.856C277.286,369.645,285.237,371.092,285.34,373.325z"/>
			</g>
			<g style="opacity:0.2;">
				<g>
					<path d="M286.385,379.64c-2.078,0.701-3.557,2.703-3.761,4.886c-0.204,2.184,0.525,4.352,1.48,6.326
						c0.29,0.6,0.788,1.288,1.443,1.163c0.635-0.121,0.859-0.903,0.937-1.544c0.432-3.541,0.546-7.164-0.109-10.672"/>
				</g>
			</g>
			<g>
				<path style="fill:#263238;" d="M279.969,376.541c8.168-2.184-16.973-1.282-25.117,0.987
					C254.852,377.528,268.216,379.683,279.969,376.541z"/>
			</g>
		</g>
	</g>
</g>
</svg>
