<?xml version="1.0" ?><svg height="40px" version="1.1" viewBox="0 0 40 40" width="40px" xmlns="http://www.w3.org/2000/svg" xmlns:xlink="http://www.w3.org/1999/xlink"><title/><desc/><defs/><g fill="none" fill-rule="evenodd" id="Iconfinder" stroke="none" stroke-width="1"><g id="Chrome"><circle cx="22" cy="22" fill="#7AB0EF" id="Shadow" opacity="0.300000012" r="18"/><g id="Aperture" stroke="#113E73" stroke-linecap="round" stroke-width="4" transform="translate(4.500000, 4.000000)"><path d="M1.64138478,8.93284747 C0.590434685,11.0640487 0,13.4630727 0,16 C0,24.836556 7.163444,32 16,32 C24.836556,32 32,24.836556 32,16 C32,7.163444 24.836556,0 16,0 C12.5028716,0 9.26779197,1.12196409 6.63507855,3.02557481" id="Oval-23"/></g><circle cx="20.5" cy="20" id="Oval-36" r="5" stroke="#113E73" stroke-width="4"/><rect fill="#113E73" height="4" id="Rectangle-49" width="15" x="20" y="13"/><g id="Group" transform="translate(18.025126, 23.889087) rotate(-225.000000) translate(-18.025126, -23.889087) translate(8.025126, 17.889087)"><circle cx="5.5" cy="7" id="Oval-36" r="5" stroke="#113E73" stroke-width="4"/><rect fill="#113E73" height="4" id="Rectangle-49" width="15" x="5" y="0"/></g><g id="Group" transform="translate(15.903806, 16.818019) rotate(-135.000000) translate(-15.903806, -16.818019) translate(4.903806, 10.818019)"><circle cx="5.5" cy="7" id="Oval-36" r="5" stroke="#113E73" stroke-width="4"/><path d="M5,0 L21,0 L21.7775316,2.53424945 C21.9395248,3.06224248 21.6428233,3.62158685 21.1148303,3.78358008 C21.023279,3.81166887 20.9281677,3.8264615 20.83241,3.82750478 L5,4 L5,0 Z" fill="#113E73" id="Rectangle-49"/></g></g></g></svg>